<?xml version="1.0" encoding="UTF-8"?>
<svg version="1.1" xmlns="http://www.w3.org/2000/svg" width="1653" height="1653">
<path d="M0 0 C1.66784694 -0.00323261 3.33569362 -0.00659797 5.00354004 -0.01008606 C8.48267265 -0.01602165 11.96178066 -0.01793215 15.44091797 -0.01733398 C18.93088031 -0.01725339 22.42070952 -0.02409833 25.91064453 -0.0378418 C55.76172529 -0.15335383 85.37716126 0.68591569 115.03125 4.41796875 C115.8965332 4.52401428 116.76181641 4.63005981 117.65332031 4.73931885 C201.43684535 15.03221435 283.36911404 37.03441031 431.86816406 107.77734375 C434.14019554 109.12149532 436.42315163 110.44460053 438.7109375 111.76171875 C470.30589378 130.02414051 500.39157024 150.82420301 529.21875 173.16796875 C529.90227539 173.69551758 530.58580078 174.22306641 531.29003906 174.76660156 C538.73681903 180.51867609 545.99844449 186.44980641 553.1484375 192.56640625 C555.89609045 194.91054576 558.70675228 197.16680191 561.53125 199.41796875 C566.99775134 203.86149908 572.10635347 208.65099328 577.21020508 213.50097656 C580.63524787 216.75561704 584.09509882 219.94707851 587.640625 223.0703125 C594.72555372 229.42203742 601.39792838 236.19801934 608.11499023 242.93383789 C610.40821748 245.23244085 612.7067624 247.52562905 615.00585938 249.81835938 C616.4873 251.30046062 617.9684305 252.78287195 619.44921875 254.265625 C620.1254277 254.93980972 620.80163666 255.61399445 621.49833679 256.30860901 C625.38527394 260.21445687 629.09547802 264.22377955 632.68980408 268.40090942 C634.92823259 270.98794401 637.26201723 273.47718207 639.59375 275.98046875 C643.8875038 280.62835417 647.9540684 285.41213223 651.921875 290.34375 C653.94444323 292.83068338 656.01122603 295.27163651 658.10180664 297.70141602 C664.61868936 305.28912068 670.67535233 313.19394433 676.70361328 321.17236328 C678.06078403 322.9599098 679.4297256 324.73698183 680.80859375 326.5078125 C708.4509866 362.03523151 732.166461 400.42450714 753.21875 440.16796875 C753.81445801 441.28558594 754.41016602 442.40320313 755.02392578 443.5546875 C791.08833926 511.37363192 817.13300714 584.92886345 846.21875 757.16796875 C846.35861076 758.76421837 846.35861076 758.76421837 846.501297 760.39271545 C848.29288401 781.35772586 848.58145984 802.23145908 848.53680801 823.25990677 C848.53116916 825.9566275 848.52834771 828.65334195 848.52572632 831.35006714 C848.49048444 856.28518467 848.2790861 881.11455411 845.47198486 905.91973877 C845.20553457 908.28529587 844.95144937 910.65198167 844.69873047 913.01904297 C840.80236487 949.10038947 834.84770783 984.91277989 826.21875 1020.16796875 C825.92419922 1021.38967773 825.62964844 1022.61138672 825.32617188 1023.87011719 C806.62259867 1100.9668115 776.80094418 1176.35490705 735.87451172 1244.40039062 C734.16743214 1247.2537457 732.4886807 1250.12221654 730.81640625 1252.99609375 C725.04334684 1262.90245276 719.13445633 1272.6421218 712.63964844 1282.09179688 C710.99925639 1284.48868587 709.37845879 1286.89831154 707.7578125 1289.30859375 C699.54318428 1301.49156882 691.05665523 1313.42973294 682.21875 1325.16796875 C681.77225098 1325.76367676 681.32575195 1326.35938477 680.86572266 1326.97314453 C667.85093133 1344.30082967 653.77560638 1360.9190691 639.2109375 1376.9609375 C637.45681619 1378.90422876 635.73902306 1380.87156323 634.03125 1382.85546875 C624.08031849 1394.24561571 613.49318108 1405.05912522 602.78466797 1415.73242188 C600.82009799 1417.69155531 598.86103552 1419.65608519 596.90234375 1421.62109375 C585.80094654 1432.72835429 585.80094654 1432.72835429 579.84765625 1437.78417969 C577.29082041 1439.95626385 574.86105905 1442.25639137 572.40625 1444.54296875 C567.78094047 1448.81636846 563.01793099 1452.85680604 558.109375 1456.8046875 C555.47189293 1458.9610073 552.89654111 1461.16956763 550.32910156 1463.40771484 C542.64996883 1470.09076424 534.67726295 1476.31177925 526.53857422 1482.42333984 C524.10455886 1484.25384645 521.6789217 1486.09509063 519.25390625 1487.9375 C509.09311387 1495.63592765 498.80204461 1503.06282982 488.21875 1510.16796875 C486.99987394 1510.99330344 485.78112285 1511.81882274 484.5625 1512.64453125 C416.97508785 1558.25788921 343.86166422 1592.59499144 266.21875 1617.16796875 C265.02958984 1617.54501953 263.84042969 1617.92207031 262.61523438 1618.31054688 C206.64183567 1635.86892671 148.60771971 1646.15067555 90.21875 1651.16796875 C88.6165712 1651.30782951 88.6165712 1651.30782951 86.98202515 1651.45051575 C65.48640049 1653.27614543 44.08993737 1653.52852298 22.53125 1653.48046875 C20.76799526 1653.47824607 19.00474045 1653.47606956 17.2414856 1653.47393799 C-8.52915924 1653.43078916 -34.14957419 1653.08960075 -59.78125 1650.16796875 C-60.6852655 1650.06615295 -61.58928101 1649.96433716 -62.52069092 1649.85943604 C-97.94351141 1645.83817398 -133.03413664 1640.19058371 -167.78125 1632.16796875 C-168.9986084 1631.88759766 -170.2159668 1631.60722656 -171.47021484 1631.31835938 C-250.77470623 1612.81227587 -328.01774104 1581.45989995 -397.96777344 1539.83789062 C-400.56774802 1538.29469155 -403.1765278 1536.76789782 -405.7890625 1535.24609375 C-433.74270796 1518.8586935 -460.16548112 1499.96648589 -485.78125 1480.16796875 C-486.46912598 1479.63751953 -487.15700195 1479.10707031 -487.86572266 1478.56054688 C-495.79232673 1472.43719949 -503.51962619 1466.11296379 -511.12060547 1459.59033203 C-512.83748967 1458.11979875 -514.56073682 1456.65699952 -516.28515625 1455.1953125 C-522.8765595 1449.59596884 -529.35393067 1443.90058548 -535.69482422 1438.01879883 C-537.59351425 1436.25997279 -539.50276553 1434.51663852 -541.42407227 1432.78222656 C-549.36896853 1425.59942216 -556.98579319 1418.1174044 -564.54663086 1410.53295898 C-566.60482157 1408.46936814 -568.6683598 1406.411232 -570.73242188 1404.35351562 C-572.06802934 1403.01724785 -573.40332684 1401.68067018 -574.73828125 1400.34375 C-575.34259476 1399.74146072 -575.94690826 1399.13917145 -576.5695343 1398.51863098 C-580.26979742 1394.79830563 -583.78085299 1390.95770751 -587.20539856 1386.98193359 C-589.61721712 1384.2056858 -592.14070599 1381.53733322 -594.65625 1378.85546875 C-599.111822 1374.06628371 -603.33579731 1369.152575 -607.43359375 1364.05078125 C-610.63395794 1360.12088313 -613.94491942 1356.29009935 -617.26953125 1352.46508789 C-631.194338 1336.35735729 -643.94844006 1319.17496437 -655.828125 1301.51953125 C-658.0473039 1298.22521328 -660.33328669 1294.99275131 -662.67749023 1291.78662109 C-667.82065643 1284.74989499 -672.39318273 1277.44262545 -676.87890625 1269.97265625 C-678.82964893 1266.72473942 -680.81681947 1263.50416903 -682.83984375 1260.30078125 C-726.45915915 1191.14755043 -758.09313255 1114.61350121 -801.52410889 910.55682373 C-801.76898539 908.28190764 -802.02445102 906.0084037 -802.28173828 903.73486328 C-807.91591056 852.8331545 -807.74091054 798.33258503 -802.03448486 747.44805908 C-801.76636283 745.03392685 -801.51274367 742.61855331 -801.26123047 740.20263672 C-794.57683572 676.58458196 -780.41050809 614.52944183 -759.45965576 554.12573242 C-758.82576663 552.29643618 -758.19616781 550.46565483 -757.56689453 548.63476562 C-735.02090401 483.25628379 -702.95625945 420.10751233 -663.78125 363.16796875 C-663.23791016 362.3776123 -662.69457031 361.58725586 -662.13476562 360.77294922 C-650.0914236 343.30873003 -637.67771535 326.20548843 -624.16210938 309.84863281 C-622.29905455 307.58108165 -620.47687664 305.28215528 -618.65625 302.98046875 C-611.65973076 294.21640781 -604.35742611 285.71708056 -596.81640625 277.41796875 C-595.00747457 275.418075 -593.23233199 273.39527443 -591.46875 271.35546875 C-581.81067296 260.30831587 -571.60430509 249.83027166 -561.21630859 239.47265625 C-559.01672928 237.27848373 -556.82260993 235.07895152 -554.62890625 232.87890625 C-553.20605 231.45671019 -551.78288391 230.03482404 -550.359375 228.61328125 C-549.71647522 227.96835724 -549.07357544 227.32343323 -548.41119385 226.65896606 C-544.59282594 222.85996911 -540.66394934 219.24324792 -536.58106995 215.72967529 C-533.8084269 213.32384865 -531.14576702 210.80393973 -528.46875 208.29296875 C-523.64888923 203.80929606 -518.70621022 199.55172645 -513.5703125 195.4296875 C-511.09450687 193.42199638 -508.66744867 191.36759038 -506.25170898 189.28833008 C-498.76917515 182.86148043 -490.99511909 176.8610115 -483.1171875 170.92871094 C-480.67773079 169.08993985 -478.24499009 167.24250606 -475.8125 165.39453125 C-466.29511811 158.18489257 -456.68971584 151.16398419 -446.77636719 144.50830078 C-444.72389831 143.12943953 -442.67829674 141.74075945 -440.6328125 140.3515625 C-422.348794 127.98998059 -403.61533717 116.33642958 -384.33496094 105.59326172 C-381.84457726 104.20331335 -379.36369189 102.79744703 -376.8828125 101.390625 C-348.21058858 85.28914674 -318.19438532 71.61731506 -287.78125 59.16796875 C-286.10506592 58.48130127 -286.10506592 58.48130127 -284.39501953 57.78076172 C-276.91415365 54.74910971 -269.37130399 51.91381453 -261.78125 49.16796875 C-261.08034241 48.91335876 -260.37943481 48.65874878 -259.6572876 48.39642334 C-188.80342337 22.70241806 -113.2858027 6.08765676 -37.96269226 1.36811829 C-35.68433058 1.22478297 -33.4063932 1.07463984 -31.12876892 0.92002869 C-20.74414323 0.23719614 -10.40507834 0.00488168 0 0 Z " fill="#9234E9" transform="translate(804.78125,-0.16796875)"/>
<path d="M0 0 C2.22091771 -0.0020287 4.44183477 -0.00494669 6.66275024 -0.00869751 C11.27637182 -0.01307795 15.88981715 -0.00682605 20.50341797 0.00732422 C26.37665401 0.02447414 32.24948031 0.01451063 38.12270164 -0.00339317 C42.69384789 -0.01429607 47.26489883 -0.010756 51.83604813 -0.0030098 C54.0006986 -0.00102887 56.16535814 -0.00339162 58.32999802 -0.01044846 C81.87064789 -0.07042562 108.63821843 3.38352043 126.37890625 20.6953125 C128.35268847 22.57839575 130.45555492 24.11154453 132.6640625 25.7109375 C137.05663731 29.05294849 140.24156347 32.95461051 143.53515625 37.359375 C145.00762087 39.49508951 145.00762087 39.49508951 147.1640625 40.3984375 C148.06036089 42.01549154 148.87994418 43.67541104 149.66015625 45.3515625 C150.37461914 46.86943359 150.37461914 46.86943359 151.10351562 48.41796875 C151.59787109 49.48402344 152.09222656 50.55007813 152.6015625 51.6484375 C153.57714132 53.73804785 154.55493426 55.8266262 155.53515625 57.9140625 C155.96755615 58.84508789 156.39995605 59.77611328 156.84545898 60.73535156 C158.08485411 63.39015954 158.08485411 63.39015954 159.67350197 65.62344646 C165.37206819 76.23252262 163.46994209 92.63347046 163.48291016 104.39135742 C163.49223945 106.35523884 163.5024124 108.31911639 163.51335144 110.2829895 C163.54057417 115.61104198 163.5558192 120.93906788 163.56877947 126.26717162 C163.58471982 132.00116583 163.61148591 137.7351114 163.6368103 143.46907043 C163.6783676 153.21968026 163.71274825 162.97029365 163.7421875 172.72094727 C163.7821402 185.94674895 163.83542783 199.17246852 163.8914609 212.39821029 C164.20676714 287.7315502 164.20920582 363.06461901 164.1640625 438.3984375 C164.72181441 438.39805778 165.27956631 438.39767806 165.85421979 438.39728683 C199.20955035 438.37471115 232.56487892 438.3576528 265.92021545 438.34737217 C269.96129599 438.34612206 274.00237651 438.34482768 278.04345703 438.34350586 C279.2497787 438.34311239 279.2497787 438.34311239 280.48047049 438.34271098 C293.35494349 438.33840713 306.22941184 438.33055006 319.10388212 438.3212847 C332.39988782 438.31179868 345.69589115 438.30635102 358.99190009 438.30434901 C366.42394989 438.30312212 373.85599003 438.30023728 381.28803635 438.29270744 C399.57580098 438.27496664 417.86288988 438.29457423 436.15049636 438.38837594 C438.20321091 438.39863312 440.25592827 438.40790024 442.30864811 438.41703272 C450.50889306 438.45498462 458.70837081 438.51822491 466.90815663 438.61357987 C469.44960763 438.64057693 471.99113666 438.66111367 474.53269458 438.67472827 C478.02284535 438.69519552 481.51181263 438.74053875 485.00161743 438.79249573 C486.02048231 438.79341929 487.0393472 438.79434285 488.08908677 438.7952944 C494.47542887 438.92550725 498.68198881 440.206535 504.1640625 443.3984375 C506.06389683 444.09222517 507.98030243 444.7432455 509.9140625 445.3359375 C527.24649647 450.9525237 527.24649647 450.9525237 534.1640625 457.3984375 C535.50915369 458.41061191 536.86395104 459.40997538 538.2265625 460.3984375 C543.66676413 464.45273225 547.83283103 469.20095973 552.1640625 474.3984375 C552.95941406 475.16414063 553.75476562 475.92984375 554.57421875 476.71875 C567.54362783 490.13807825 575.2802774 512.64417517 575.29345703 530.97729492 C575.29811729 532.88968712 575.29811729 532.88968712 575.3028717 534.8407135 C575.30106421 536.22844468 575.29905935 537.61617561 575.296875 539.00390625 C575.29793429 540.46719896 575.29932028 541.93049146 575.30101013 543.39378357 C575.30380995 547.31326063 575.29943105 551.23269686 575.29283524 555.15216827 C575.28905968 557.58775381 575.286996 560.02333549 575.28536987 562.45892334 C575.26867447 583.65024482 575.13458554 604.83560929 574.7265625 626.0234375 C574.69722626 627.60890884 574.69722626 627.60890884 574.66729736 629.22640991 C574.45506419 640.31368488 574.13027212 651.34689628 573.1640625 662.3984375 C572.5040625 662.3984375 571.8440625 662.3984375 571.1640625 662.3984375 C570.98230469 663.01589844 570.80054688 663.63335938 570.61328125 664.26953125 C564.21756044 685.81819059 564.21756044 685.81819059 559.1640625 693.3984375 C558.5040625 693.3984375 557.8440625 693.3984375 557.1640625 693.3984375 C556.9371875 694.0996875 556.7103125 694.8009375 556.4765625 695.5234375 C554.89026264 698.99818959 552.66521407 701.56746374 550.1640625 704.3984375 C549.67421875 704.99140625 549.184375 705.584375 548.6796875 706.1953125 C548.17953125 706.79859375 547.679375 707.401875 547.1640625 708.0234375 C546.7103125 708.57257812 546.2565625 709.12171875 545.7890625 709.6875 C543.74923234 711.83520579 541.49814002 713.57680406 539.1640625 715.3984375 C538.42027344 716.02363281 537.67648437 716.64882812 536.91015625 717.29296875 C525.83450728 726.49456544 513.05941771 734.3984375 498.1640625 734.3984375 C498.1640625 735.0584375 498.1640625 735.7184375 498.1640625 736.3984375 C489.53689798 738.12444828 481.28184414 738.68096844 472.49664307 738.63894653 C471.15809986 738.63982078 469.81955699 738.64157576 468.48101592 738.64412487 C464.83677654 738.64855948 461.19265655 738.64064884 457.54843235 738.63056874 C453.60586642 738.62187993 449.66330647 738.62485822 445.72073364 738.62637329 C438.90121127 738.62741873 432.08172736 738.62117795 425.26221466 738.60989761 C415.40251754 738.5935991 405.54283889 738.58843017 395.68312976 738.58592163 C379.68392494 738.58155134 363.68474059 738.56826035 347.68554688 738.54931641 C332.14974062 738.53094034 316.61393994 738.5167923 301.078125 738.50830078 C299.64013516 738.50751261 299.64013516 738.50751261 298.17309502 738.50670852 C293.36347172 738.50409832 288.55384839 738.50157093 283.74422503 738.49908471 C243.88415652 738.47837296 204.02411087 738.44316561 164.1640625 738.3984375 C164.16047997 739.82055369 164.16047997 739.82055369 164.15682507 741.2713995 C164.09787903 764.40198766 164.02190366 787.53247291 163.92834759 810.66294765 C163.88349267 821.8489379 163.84405452 833.03489705 163.81762695 844.22094727 C163.79456313 853.97728106 163.76107233 863.73351556 163.71536094 873.48977047 C163.69154126 878.64965798 163.67273906 883.80944784 163.66644859 888.96938896 C163.6603464 893.83921909 163.64016419 898.70879972 163.60978699 903.57853699 C163.60108822 905.35325441 163.59726695 907.12800455 163.59905434 908.90274239 C163.60983705 924.56784409 161.9144362 939.27583618 156.2890625 954.0234375 C155.96292969 954.93738281 155.63679688 955.85132813 155.30078125 956.79296875 C153.23359475 962.36713312 150.78611182 966.69215631 147.1640625 971.3984375 C146.42822666 972.63244792 145.71046395 973.87821854 145.0390625 975.1484375 C142.45428332 979.62872141 142.45428332 979.62872141 140.1640625 981.3984375 C139.5040625 981.3984375 138.8440625 981.3984375 138.1640625 981.3984375 C137.761875 982.23375 137.761875 982.23375 137.3515625 983.0859375 C136.9596875 983.8490625 136.5678125 984.6121875 136.1640625 985.3984375 C135.7721875 986.2028125 135.3803125 987.0071875 134.9765625 987.8359375 C132.61683069 991.17211006 129.77088886 993.47206433 126.1640625 995.3984375 C125.1740625 995.3984375 124.1840625 995.3984375 123.1640625 995.3984375 C122.8340625 996.3884375 122.5040625 997.3784375 122.1640625 998.3984375 C119.57421875 1000.30078125 119.57421875 1000.30078125 116.2265625 1002.3359375 C115.14503906 1003.00496094 114.06351563 1003.67398438 112.94921875 1004.36328125 C105.43432335 1008.59918403 97.52437177 1011.11264238 89.06225586 1012.61743164 C88.11650916 1012.78594415 87.17076246 1012.95445665 86.19635677 1013.1280756 C75.08108671 1014.94730898 64.0276651 1014.95869508 52.79296875 1014.89453125 C50.52864028 1014.89468682 48.26431154 1014.89618541 45.99998474 1014.89894104 C41.29812577 1014.90031183 36.59657676 1014.88798436 31.89477539 1014.86499023 C25.9083314 1014.83649454 19.9223964 1014.83939223 13.93591404 1014.85208035 C9.27640019 1014.85907366 4.61700149 1014.85120858 -0.04249763 1014.83882332 C-2.24900939 1014.83435237 -4.45553369 1014.83393324 -6.66204643 1014.83788872 C-23.26582961 1014.85374174 -37.80365177 1014.09079517 -52.84375 1006.42578125 C-53.52050781 1006.08353516 -54.19726562 1005.74128906 -54.89453125 1005.38867188 C-55.57644531 1005.04126953 -56.25835938 1004.69386719 -56.9609375 1004.3359375 C-62.2490736 1001.62958947 -62.2490736 1001.62958947 -67.69921875 999.27734375 C-70.394772 998.16856956 -71.82224737 996.47708538 -73.8359375 994.3984375 C-75.96902942 993.16331671 -75.96902942 993.16331671 -77.8359375 992.3984375 C-77.8359375 991.7384375 -77.8359375 991.0784375 -77.8359375 990.3984375 C-78.43921875 990.12773438 -79.0425 989.85703125 -79.6640625 989.578125 C-86.08218402 986.09202303 -90.0825126 978.18101443 -93.953125 972.25 C-95.418977 970.02993369 -96.92402073 967.89593397 -98.5234375 965.7734375 C-109.00242382 951.21538268 -112.15284838 934.55428998 -112.08482647 917.02486229 C-112.08661174 915.57795121 -112.08927377 914.13104099 -112.09272733 912.68413293 C-112.09967208 908.71326526 -112.09419828 904.74249785 -112.08667125 900.77163485 C-112.08068903 896.44967844 -112.0863338 892.12773453 -112.09049207 887.80577815 C-112.09617479 880.23270053 -112.09442793 872.6596529 -112.0878067 865.08657646 C-112.07798797 853.82528224 -112.07962174 842.56400997 -112.083557 831.3027132 C-112.0898329 812.35696954 -112.08665963 793.41123832 -112.07796288 774.46549606 C-112.0693511 755.70091003 -112.06444266 736.93632959 -112.06463051 718.17174149 C-112.06463815 717.00489954 -112.0646458 715.8380576 -112.06465368 714.63585682 C-112.06469458 709.89942331 -112.0647602 705.16298981 -112.06485949 700.4265563 C-112.06576574 655.9870796 -112.05581796 611.54761143 -112.04042982 567.10813768 C-112.02680399 527.61245513 -112.02056861 488.11677863 -112.02124023 448.62109375 C-112.02128065 446.08484445 -112.02132101 443.54859514 -112.02136131 441.01234584 C-112.02138166 439.75848138 -112.02140202 438.50461692 -112.02142298 437.21275657 C-112.02152378 430.901178 -112.02161436 424.58959943 -112.02169323 418.27802086 C-112.02170994 417.0328853 -112.02172666 415.78774975 -112.02174388 414.50488282 C-112.02210892 381.51632918 -112.01757184 348.52777631 -112.01136667 315.53922331 C-112.01114639 314.36600665 -112.01092612 313.19278998 -112.01069918 311.98402129 C-112.00981093 307.26609923 -112.00892254 302.54817717 -112.00800822 297.83025511 C-112.00484676 281.40600994 -112.00333876 264.98176536 -112.00289673 248.5575199 C-112.00230004 227.39507173 -111.99831374 206.23262857 -111.98846527 185.07018255 C-111.98334498 173.87401518 -111.98094267 162.67785515 -111.98246146 151.48168668 C-111.98319469 144.00877775 -111.98030113 136.53587598 -111.97441765 129.06296935 C-111.97116128 124.80151887 -111.96948782 120.54008379 -111.97217824 116.27863257 C-111.97458983 112.40262943 -111.97241228 108.52665711 -111.96656013 104.65065789 C-111.96525905 103.25655584 -111.96563149 101.86245098 -111.96787674 100.46835013 C-111.98195394 90.96279875 -111.5658205 82.55157462 -108.8359375 73.3984375 C-108.13110466 70.40649401 -107.47672651 67.40469232 -106.8359375 64.3984375 C-106.1759375 64.3984375 -105.5159375 64.3984375 -104.8359375 64.3984375 C-104.6503125 63.3465625 -104.6503125 63.3465625 -104.4609375 62.2734375 C-103.79755405 59.22187363 -102.86381795 56.34502812 -101.8359375 53.3984375 C-101.1759375 53.3984375 -100.5159375 53.3984375 -99.8359375 53.3984375 C-99.58972656 52.70105469 -99.34351563 52.00367188 -99.08984375 51.28515625 C-95.20636132 42.344678 -88.30567344 34.45272505 -81.68359375 27.421875 C-79.68405381 25.33466461 -79.68405381 25.33466461 -77.8359375 22.3984375 C-76.13620203 21.42266343 -74.43429482 20.44738143 -72.6875 19.55859375 C-70.7011288 18.42154355 -70.7011288 18.42154355 -68.9609375 16.41796875 C-66.49687948 14.07620773 -64.38590292 13.20462516 -61.2109375 12.0234375 C-57.1711039 10.4558853 -53.89180018 8.81635375 -50.3984375 6.2734375 C-45.56660792 3.30475625 -41.00085266 2.49346155 -35.47802734 1.74365234 C-34.55823278 1.61675711 -33.63843822 1.48986187 -32.6907711 1.35912132 C-21.80677168 -0.0194839 -10.95432841 -0.03594604 0 0 Z " fill="#FDFDFD" transform="translate(606.8359375,332.6015625)"/>
<path d="M0 0 C1.33908374 0.00056958 1.33908374 0.00056958 2.70521969 0.00115067 C3.73132903 -0.00084038 4.75743838 -0.00283143 5.81464195 -0.00488281 C6.95566791 -0.00196997 8.09669387 0.00094287 9.27229637 0.00394398 C10.47371519 0.00308955 11.67513401 0.00223513 12.91295946 0.00135481 C16.26278436 -0.0000134 19.61255155 0.00313416 22.9623695 0.00813287 C26.56906594 0.012434 30.17576045 0.01099119 33.78245872 0.0102306 C40.03630891 0.00970515 46.2901487 0.01285414 52.54399627 0.01846844 C61.5861133 0.0265806 70.62822527 0.02919837 79.67034554 0.03045643 C94.33905185 0.0326474 109.00775262 0.0393087 123.67645591 0.04875904 C137.92938532 0.057932 152.18231322 0.0650134 166.43524498 0.06926686 C167.31315895 0.06952958 168.19107293 0.0697923 169.09559036 0.07006299 C173.49963667 0.07136798 177.90368298 0.0726317 182.3077293 0.07387489 C218.86871175 0.0842489 255.4296879 0.10186843 291.9906649 0.1241985 C291.9906649 0.7841985 291.9906649 1.4441985 291.9906649 2.1241985 C292.68289146 2.07779225 293.37511802 2.031386 294.08832115 1.9835735 C303.64757697 1.63092638 315.43993232 2.66376566 322.9906649 9.1241985 C325.9943233 11.54564998 329.13177343 13.32586384 332.52386802 15.13030201 C340.31375414 19.297091 346.71745821 23.83966833 352.9906649 30.1241985 C353.68418052 30.74681568 354.37769615 31.36943287 355.0922274 32.01091725 C366.43332841 42.45436354 374.23346919 58.29727339 377.9906649 73.1241985 C378.17162397 73.76918954 378.35258304 74.41418059 378.53902572 75.07871681 C380.79121864 84.30960207 380.29968731 93.85732674 380.30951256 103.29289967 C380.31882521 105.34351194 380.32899584 107.39412048 380.33995384 109.44472462 C380.36725715 115.01743295 380.38242769 120.59011586 380.39538187 126.16287357 C380.41116834 132.08232699 380.43795416 138.0017315 380.4634127 143.92114979 C380.50496339 153.93421126 380.53939274 163.9472759 380.5687899 173.96038014 C380.60936787 187.7792545 380.66229065 201.59805877 380.71806329 215.416879 C380.94189278 271.31933465 381.05402125 327.22131825 380.9906649 383.1241985 C378.45509364 383.13322558 375.91955514 383.13978071 373.38397545 383.14495045 C372.31838024 383.14912354 372.31838024 383.14912354 371.23125786 383.15338093 C365.06054488 383.16279206 358.95173819 382.83887853 352.8031649 382.3116985 C351.74436119 382.22476734 350.68555748 382.13783619 349.59466881 382.04827076 C341.76505513 381.36837686 334.01603403 380.35702205 326.25067466 379.1578899 C321.2264417 378.39386951 316.31773019 377.91115823 311.2406649 377.6866985 C298.26783861 376.93099988 285.98851184 372.92052657 273.6156649 369.1866985 C272.53438316 368.86306324 271.45310142 368.53942799 270.33905357 368.20598561 C264.11248215 366.28163466 258.25527447 364.02458964 252.39252037 361.17278248 C250.07582697 360.16137791 247.96959476 359.58050586 245.4906649 359.1241985 C239.90693372 358.05497338 235.08444068 355.57725367 229.9906649 353.1241985 C227.74237392 352.07884825 225.49233921 351.03724101 223.2406649 349.9991985 C222.15914146 349.49904225 221.07761802 348.998886 219.96332115 348.4835735 C216.66074435 346.97332813 213.3403014 345.52637192 209.9906649 344.1241985 C209.9906649 343.4641985 209.9906649 342.8041985 209.9906649 342.1241985 C209.41058677 341.94244068 208.83050865 341.76068287 208.2328524 341.57341725 C201.42150477 339.38164697 195.63720065 336.56894431 189.5922274 332.70622975 C186.80836111 331.01333808 183.97492128 329.43767302 181.12274498 327.86370045 C175.33924621 324.67095482 169.79988309 321.51640287 164.6312899 317.37029225 C162.79703518 315.90693275 162.79703518 315.90693275 159.6781649 314.3741985 C155.03867598 311.86780793 151.43014568 308.07585282 147.6391024 304.46404225 C145.08520258 302.0609365 145.08520258 302.0609365 142.1547274 300.44060475 C141.44058677 300.00619068 140.72644615 299.57177662 139.9906649 299.1241985 C139.9906649 298.4641985 139.9906649 297.8041985 139.9906649 297.1241985 C139.46343834 296.89216725 138.93621177 296.660136 138.39300865 296.4210735 C135.21380592 294.70482097 132.41016946 292.568378 129.5531649 290.3741985 C128.99306724 289.95654225 128.43296959 289.538886 127.85589927 289.1085735 C123.96372951 286.12926968 121.06773427 282.93439513 117.9906649 279.1241985 C116.75284646 277.96297162 115.4845013 276.83277017 114.1781649 275.7491985 C109.88560994 272.08837804 105.9431733 268.14514861 101.9906649 264.1241985 C101.1450399 263.2991985 100.2994149 262.4741985 99.4281649 261.6241985 C96.13577653 258.24738991 93.07030007 254.69439503 89.9906649 251.1241985 C89.44925865 250.51060475 88.9078524 249.897011 88.3500399 249.2648235 C79.9906649 239.72331466 79.9906649 239.72331466 79.9906649 236.1241985 C79.3719149 235.8354485 78.7531649 235.5466985 78.1156649 235.2491985 C75.49474187 233.86165101 74.22687489 232.8543021 73.3031649 229.9991985 C72.00963006 227.16574122 70.77756604 225.68605686 68.6781649 223.4366985 C65.29106856 219.72702155 63.28313364 215.96950022 61.17425865 211.44060475 C60.08954649 209.31771923 58.9920366 207.71922703 57.4281649 205.9366985 C55.50298137 203.71533289 54.20260779 201.89837881 52.8031649 199.3741985 C51.19961149 196.15104362 51.19961149 196.15104362 48.9906649 194.1241985 C48.5781649 192.9279485 48.1656649 191.7316985 47.7406649 190.4991985 C46.59698389 187.26554205 45.22255644 184.96196272 43.0531649 182.3116985 C40.05826802 178.5259731 38.6961104 174.87285154 37.1859774 170.32341725 C35.20488787 165.0210894 32.56679711 160.05188131 29.9906649 155.01872975 C29.65961754 154.37017018 29.32857017 153.72161061 28.98749107 153.05339772 C28.34433656 151.808674 27.68905904 150.5701048 27.01922935 149.33953053 C23.64296787 142.97142085 21.43262095 136.20225429 19.1781649 129.3741985 C18.96067589 128.71803547 18.74318687 128.06187245 18.51910728 127.38582569 C11.55791045 106.27551615 6.67945985 84.85384118 2.94281334 62.96086842 C2.82599708 62.28302799 2.70918083 61.60518757 2.58882469 60.90680653 C2.27368801 59.06876887 1.96530477 57.2295769 1.65741295 55.39031178 C1.00281872 52.18373487 0.02954099 49.22284105 -1.0093351 46.1241985 C-1.27182465 43.41541455 -1.46798935 40.77435219 -1.5718351 38.0616985 C-1.75657751 32.87154675 -1.75657751 32.87154675 -2.51641518 27.74455982 C-3.04886406 24.91406264 -3.13880995 22.30003795 -3.1421476 19.4210735 C-3.14343666 18.358886 -3.14472573 17.2966985 -3.14605385 16.2023235 C-3.14218666 15.10404225 -3.13831948 14.005761 -3.1343351 12.8741985 C-3.14013588 11.2035735 -3.14013588 11.2035735 -3.14605385 9.4991985 C-3.14476479 8.44216725 -3.14347573 7.385136 -3.1421476 6.2960735 C-3.14101967 5.32766529 -3.13989174 4.35925709 -3.13872963 3.36150318 C-2.97268137 0.4904347 -2.86801572 0.17727418 0 0 Z " fill="#FDFDFD" transform="translate(801.0093351006508,331.8758015036583)"/>
<path d="M0 0 C0.99 0.495 0.99 0.495 2 1 C2 2.65 2 4.3 2 6 C2.66 6 3.32 6 4 6 C4 123.15 4 240.3 4 361 C105.55363153 360.84177933 105.55363153 360.84177933 207.10717773 360.63964844 C226.7989502 360.62158203 226.7989502 360.62158203 236.03285217 360.6182251 C242.4484807 360.61451551 248.86396772 360.59993091 255.27955627 360.57769775 C262.69950325 360.55202256 270.11931593 360.54070547 277.53930754 360.5462202 C281.3254031 360.54860371 285.11119955 360.54514422 288.89723861 360.52313948 C308.87282938 360.41272546 328.7622701 361.06018309 348 367 C348.33 366.34 348.66 365.68 349 365 C350.32 365 351.64 365 353 365 C353.0928125 366.175625 353.0928125 366.175625 353.1875 367.375 C353.72649889 370.18738911 353.72649889 370.18738911 356.25 371.25 C362.10460455 372.93061305 362.10460455 372.93061305 368 372 C368 372.99 368 373.98 368 375 C367.34 375.33 366.68 375.66 366 376 C366 376.66 366 377.32 366 378 C359.99664199 376.31395052 354.22350134 374.35793746 348.4609375 371.9765625 C345.32315394 370.73141029 342.13481209 369.70584039 338.91015625 368.7109375 C337 368 337 368 334 366 C331.82161913 365.6751086 331.82161913 365.6751086 329.3762455 365.68617344 C327.94829985 365.65788737 327.94829985 365.65788737 326.49150681 365.62902987 C325.44683551 365.61848019 324.4021642 365.60793052 323.32583618 365.59706116 C322.22285116 365.57852597 321.11986614 365.55999078 319.98345733 365.54089391 C316.29324569 365.48206054 312.60302217 365.43806857 308.91259766 365.39477539 C306.29036152 365.35752591 303.66813168 365.31983087 301.04590797 365.28171635 C273.02026382 364.88905366 244.99190554 364.78280863 216.96392991 364.70291698 C209.48497022 364.68144378 202.00602912 364.65516241 194.5270855 364.62875474 C181.20442701 364.58183064 167.88175978 364.53837901 154.55908203 364.49731445 C141.66584606 364.45756567 128.77261761 364.41605482 115.87939453 364.37231445 C115.07619571 364.36959018 114.27299688 364.36686591 113.4454587 364.36405908 C109.41351987 364.35037324 105.38158117 364.33665423 101.34964252 364.32291877 C68.23311089 364.21014435 35.11656322 364.10308994 2 364 C1.33617093 282.17940478 0.8050881 200.35994572 0.48259127 118.53719151 C0.43124083 105.53343647 0.37712724 92.52969323 0.32291877 79.52594984 C0.21246763 53.01731101 0.10504879 26.50866075 0 0 Z " fill="#853FC7" transform="translate(769,407)"/>
<path d="M0 0 C0 0.99 0 1.98 0 3 C-4.55426184 5.66590937 -7.73946963 6.31563182 -13 6 C-13 6.66 -13 7.32 -13 8 C-14.30788739 8.49161725 -15.62171907 8.96741758 -16.9375 9.4375 C-18.03384766 9.83775391 -18.03384766 9.83775391 -19.15234375 10.24609375 C-27.37482321 12.42296417 -35.90628591 12.14022877 -44.34461975 12.12025452 C-45.68469797 12.12069122 -47.02477611 12.12156794 -48.3648538 12.12284368 C-52.02723904 12.12506923 -55.68959479 12.12109404 -59.35197628 12.11606562 C-63.30891024 12.11173333 -67.26584265 12.11320951 -71.22277832 12.1139679 C-78.0718074 12.11449137 -84.92082692 12.11136299 -91.76985359 12.10573006 C-101.67230618 12.09759117 -111.57475417 12.09499739 -121.47720974 12.09374207 C-137.54462356 12.0915553 -153.6120323 12.08490539 -169.67944336 12.07543945 C-185.28426081 12.06625563 -200.88907688 12.05917954 -216.49389648 12.05493164 C-217.45633154 12.05466892 -218.4187666 12.05440619 -219.41036636 12.05413551 C-224.23878566 12.05283044 -229.06720497 12.05156674 -233.89562428 12.05032361 C-273.93041975 12.03996269 -313.96520954 12.02235458 -354 12 C-353.92912957 13.16336034 -353.85825914 14.32672068 -353.78524113 15.52533436 C-353.13440867 26.67782828 -352.85973416 37.77656465 -352.88647461 48.94604492 C-352.88675775 50.64340717 -352.88659628 52.34076954 -352.8860321 54.03813171 C-352.88574908 58.57819522 -352.8915645 63.11823146 -352.89860606 67.65828872 C-352.90492324 72.42814092 -352.90544994 77.19799399 -352.90663147 81.96784973 C-352.90972041 90.96996179 -352.91790042 99.97206147 -352.92798096 108.97416812 C-352.93921846 119.23559681 -352.94467166 129.49702613 -352.94967639 139.75845945 C-352.96008549 160.83897983 -352.97763696 181.91948913 -353 203 C-354.32 203 -355.64 203 -357 203 C-356.89241588 180.49367686 -356.77959519 157.98738529 -356.66066074 135.48111916 C-356.60554875 125.02941563 -356.55210482 114.57770869 -356.50268555 104.12597656 C-356.45957193 95.00875154 -356.41322894 85.89154942 -356.36312145 76.77436006 C-356.33673731 71.95372353 -356.31189323 67.1330909 -356.29092598 62.31242752 C-356.27107553 57.76032138 -356.24685564 53.20825795 -356.21950912 48.65619087 C-356.21028651 46.99960051 -356.20256103 45.34300089 -356.19658089 43.68639565 C-356.15474545 32.42804034 -355.7200066 21.23550753 -355 10 C-354.32321441 9.99826375 -353.64642883 9.9965275 -352.94913459 9.99473864 C-312.81610479 9.89165716 -272.68309141 9.78353336 -232.55009292 9.66888306 C-227.72870788 9.65511388 -222.90732273 9.64138672 -218.0859375 9.62768555 C-217.12610727 9.62495724 -216.16627704 9.62222894 -215.17736104 9.61941796 C-199.64641128 9.57537161 -184.11545439 9.53472809 -168.58449218 9.49534739 C-152.6422084 9.45484779 -136.69993781 9.41067913 -120.7576735 9.36312145 C-110.92454299 9.33390318 -101.09141338 9.30752919 -91.25826564 9.28482103 C-84.51061367 9.26896388 -77.7629778 9.24953516 -71.01534376 9.22733159 C-67.12534622 9.21463569 -63.23536086 9.20348219 -59.34534836 9.19658089 C-55.77708311 9.19021547 -52.20886015 9.17931923 -48.64061835 9.1649667 C-46.75266006 9.15850991 -44.86468739 9.15677063 -42.97671866 9.15525442 C-35.60506274 9.12002605 -28.33581504 8.72926163 -21 8 C-21 7.34 -21 6.68 -21 6 C-14.03859556 3.81394921 -7.10437904 1.6716186 0 0 Z " fill="#8C4ACE" transform="translate(1126,1061)"/>
<path d="M0 0 C0.99 0.33 1.98 0.66 3 1 C5.2429064 15.32634985 5.2956248 29.5484887 5.27610838 44.0238905 C5.27361143 47.5029026 5.28269082 50.98188933 5.29014587 54.46089172 C5.30280653 61.2488183 5.30469804 68.03670517 5.30234561 74.82464157 C5.30055513 80.33908868 5.3023276 85.85352383 5.30657005 91.36796951 C5.30716524 92.15577797 5.30776043 92.94358643 5.30837366 93.75526787 C5.30958548 95.35600959 5.31079962 96.95675132 5.31201603 98.55749305 C5.32285496 113.51636904 5.32074447 128.47522239 5.31463119 143.43409963 C5.30944642 157.12389021 5.32076492 170.81360997 5.33972941 184.50338654 C5.35908066 198.58051042 5.36736978 212.65760072 5.36360615 226.73473799 C5.3616924 234.63037621 5.36420015 242.52595391 5.37832069 250.42158127 C5.39019969 257.13095664 5.39167751 263.84023408 5.37953053 270.54961072 C5.37362168 273.9728647 5.37259796 277.39593918 5.38453293 280.81918144 C5.39490391 284.5242666 5.38697794 288.22886257 5.3742218 291.93392944 C5.38159609 293.02251515 5.38897037 294.11110085 5.39656812 295.232674 C5.38936158 296.22093101 5.38215503 297.20918801 5.37473011 298.2273922 C5.37478513 299.08280015 5.37484014 299.93820811 5.37489682 300.81953752 C4.92178548 303.45490869 4.04108203 304.3388683 2 306 C1.05317918 243.86230425 0.72175097 181.72545989 0.48259127 119.58151245 C0.43209511 106.49662654 0.37761332 93.41175796 0.32291877 80.32688904 C0.21108022 53.55127561 0.1038615 26.77564548 0 0 Z " fill="#924ECF" transform="translate(1180,410)"/>
<path d="M0 0 C0.99 0.495 0.99 0.495 2 1 C2 2.65 2 4.3 2 6 C2.66 6 3.32 6 4 6 C4.03262706 27.10415921 4.05160666 48.20831948 4.0625 69.3125 C4.0629343 70.12851433 4.06336861 70.94452866 4.06381607 71.78527069 C4.09780915 137.52464277 3.8425615 203.26160202 3.5 269 C3.49402628 270.14818097 3.48805257 271.29636193 3.48189783 272.47933626 C3.32824183 301.98626305 3.16783051 331.49315047 3 361 C2.67 361 2.34 361 2 361 C1.8442909 344.14591646 1.70033427 327.29173872 1.5625 310.4375 C1.55698576 309.76451402 1.55147153 309.09152803 1.5457902 308.39814854 C0.99774761 241.39138048 0.71792262 174.38332961 0.4375 107.375 C0.43189475 106.03684028 0.42628921 104.69868056 0.42068338 103.36052084 C0.27640333 68.90703016 0.13618014 34.45352362 0 0 Z " fill="#9655D0" transform="translate(769,407)"/>
<path d="M0 0 C1.31097656 0.01353516 1.31097656 0.01353516 2.6484375 0.02734375 C3.30070312 0.03894531 3.95296875 0.05054688 4.625 0.0625 C4.625 0.7225 4.625 1.3825 4.625 2.0625 C-3.9897012 3.7849453 -12.23206191 4.34510416 -21.00445557 4.30300903 C-22.33887398 4.30388329 -23.67329205 4.30563829 -25.00770831 4.30818737 C-28.64054627 4.31262177 -32.27326444 4.30471163 -35.90608716 4.29463124 C-39.83638304 4.28594213 -43.76667292 4.28892074 -47.69697571 4.29043579 C-54.49521721 4.29148121 -61.29342012 4.28524063 -68.09165192 4.27396011 C-77.92057996 4.25766134 -87.74948946 4.25249264 -97.57842955 4.24998413 C-113.5277201 4.24561388 -129.47699012 4.232323 -145.42626953 4.21337891 C-160.91357318 4.19500274 -176.40087124 4.18085474 -191.88818359 4.17236328 C-192.84385649 4.17183783 -193.79952939 4.17131239 -194.78416207 4.17077102 C-199.5788013 4.16816082 -204.37344056 4.16563343 -209.16807985 4.16314721 C-248.90373427 4.14243558 -288.63936578 4.10722835 -328.375 4.0625 C-325.79720112 1.48470112 -324.81074536 1.8101117 -321.22619247 1.80358028 C-319.57986521 1.79330709 -319.57986521 1.79330709 -317.90027881 1.78282636 C-316.68454849 1.78544322 -315.46881818 1.78806007 -314.21624756 1.79075623 C-312.29055589 1.78312597 -312.29055589 1.78312597 -310.32596135 1.77534157 C-306.7505474 1.76142693 -303.17521831 1.75998629 -299.59978127 1.76048481 C-295.74824899 1.75885222 -291.89675449 1.74573456 -288.04524231 1.73394775 C-281.36690156 1.71505096 -274.68857917 1.70336148 -268.01021576 1.69640923 C-258.34780708 1.68625368 -248.68545395 1.66419945 -239.02307406 1.63902331 C-223.33912483 1.59839038 -207.65517029 1.56594486 -191.97119141 1.53930664 C-191.03185262 1.53770934 -190.09251383 1.53611204 -189.12471023 1.53446633 C-188.18420541 1.53286743 -187.2437006 1.53126853 -186.27469563 1.52962118 C-172.94989023 1.50694868 -159.62509036 1.48231616 -146.30029297 1.45532227 C-145.36330723 1.45342612 -144.42632149 1.45152997 -143.46094224 1.44957637 C-127.84181056 1.41780533 -112.22268942 1.38205234 -96.60357118 1.34428078 C-86.96529369 1.3212319 -77.3270234 1.30228096 -67.68872795 1.28861404 C-61.08364341 1.27908916 -54.47857096 1.26625126 -47.87349764 1.25080519 C-44.06118697 1.24203547 -40.24889126 1.23493622 -36.43657112 1.23216438 C-32.30492038 1.22914271 -28.17332339 1.21855568 -24.04168701 1.20726013 C-22.23147587 1.20783933 -22.23147587 1.20783933 -20.38469481 1.20843023 C-19.27671232 1.20418918 -18.16872982 1.19994814 -17.02717209 1.19557858 C-16.07363932 1.19400468 -15.12010656 1.19243078 -14.13767886 1.19080919 C-9.35399021 0.96863671 -4.81519463 -0.0650702 0 0 Z " fill="#FDECFD" transform="translate(1100.375,1066.9375)"/>
<path d="M0 0 C1.33908374 0.00056958 1.33908374 0.00056958 2.70521969 0.00115067 C3.73132903 -0.00084038 4.75743838 -0.00283143 5.81464195 -0.00488281 C6.95566791 -0.00196997 8.09669387 0.00094287 9.27229637 0.00394398 C10.47371519 0.00308955 11.67513401 0.00223513 12.91295946 0.00135481 C16.26278436 -0.0000134 19.61255155 0.00313416 22.9623695 0.00813287 C26.56906594 0.012434 30.17576045 0.01099119 33.78245872 0.0102306 C40.03630891 0.00970515 46.2901487 0.01285414 52.54399627 0.01846844 C61.5861133 0.0265806 70.62822527 0.02919837 79.67034554 0.03045643 C94.33905185 0.0326474 109.00775262 0.0393087 123.67645591 0.04875904 C137.92938532 0.057932 152.18231322 0.0650134 166.43524498 0.06926686 C167.31315895 0.06952958 168.19107293 0.0697923 169.09559036 0.07006299 C173.49963667 0.07136798 177.90368298 0.0726317 182.3077293 0.07387489 C218.86871175 0.0842489 255.4296879 0.10186843 291.9906649 0.1241985 C291.9906649 0.7841985 291.9906649 1.4441985 291.9906649 2.1241985 C290.77852821 2.12197788 289.56639152 2.11975727 288.31752342 2.11746937 C271.97941328 2.08867271 255.64129642 2.07185123 239.3031649 2.0616985 C238.62530905 2.06126419 237.94745321 2.06082989 237.24905628 2.06038243 C183.369847 2.02684169 129.49367023 2.27838494 75.6156649 2.6241985 C74.68345509 2.63017221 73.75124528 2.63614593 72.79078668 2.64230067 C48.85736254 2.79581018 24.92399786 2.95708739 0.9906649 3.1241985 C0.3306649 12.0341985 -0.3293351 20.9441985 -1.0093351 30.1241985 C-1.3393351 30.1241985 -1.6693351 30.1241985 -2.0093351 30.1241985 C-2.84154518 26.49619231 -3.13783584 23.14027885 -3.1421476 19.4210735 C-3.14343666 18.358886 -3.14472573 17.2966985 -3.14605385 16.2023235 C-3.14218666 15.10404225 -3.13831948 14.005761 -3.1343351 12.8741985 C-3.14013588 11.2035735 -3.14013588 11.2035735 -3.14605385 9.4991985 C-3.14476479 8.44216725 -3.14347573 7.385136 -3.1421476 6.2960735 C-3.14101967 5.32766529 -3.13989174 4.35925709 -3.13872963 3.36150318 C-2.97268137 0.4904347 -2.86801572 0.17727418 0 0 Z " fill="#FDEFFD" transform="translate(801.0093351006508,331.8758015036583)"/>
<path d="M0 0 C39.06712453 -0.11447824 78.13422717 -0.20256556 117.20148595 -0.25532665 C121.81515107 -0.26158008 126.42881585 -0.2680517 131.04248047 -0.2746582 C132.42020984 -0.27662553 132.42020984 -0.27662553 133.82577212 -0.2786326 C148.69207872 -0.3003811 163.55828851 -0.33979957 178.4245377 -0.38576398 C193.68200738 -0.43254407 208.93942641 -0.46029868 224.19696486 -0.47044247 C233.60950624 -0.47729841 243.02177398 -0.49894154 252.43423112 -0.53958233 C258.89127837 -0.56603987 265.34818442 -0.57399419 271.80528192 -0.56750689 C275.52914839 -0.56430865 279.25253713 -0.56916393 282.97631836 -0.59602737 C287.01938392 -0.62498017 291.06143771 -0.6149132 295.10458374 -0.60127258 C296.85850923 -0.62311889 296.85850923 -0.62311889 298.64786756 -0.64540654 C305.31401783 -0.58467872 309.98872302 0.39061652 315.77757323 3.76259357 C318.78606718 5.43766778 321.89495399 6.36585268 325.1875 7.32421875 C327 8 327 8 329 10 C331.06874034 10.6425235 331.06874034 10.6425235 333 11 C333 11.99 333 12.98 333 14 C335.31 14.33 337.62 14.66 340 15 C340.0928125 15.928125 340.0928125 15.928125 340.1875 16.875 C340.455625 17.57625 340.72375 18.2775 341 19 C342.66072849 19.68132451 344.327767 20.34742127 346 21 C347.16015625 23.0625 347.16015625 23.0625 348 25 C341.8020628 21.66070322 335.63424913 18.26732966 329.5 14.8125 C328.601604 14.31363281 328.601604 14.31363281 327.68505859 13.8046875 C323.28578211 11.31155556 323.28578211 11.31155556 321.52734375 9.39453125 C315.24812378 3.66133041 301.02502941 3.29888378 293 3 C293 2.34 293 1.68 293 1 C196.31 1 99.62 1 0 1 C0 0.67 0 0.34 0 0 Z " fill="#8F4BD0" transform="translate(800,331)"/>
<path d="M0 0 C4.39453125 0.73242188 4.39453125 0.73242188 8.7890625 1.46484375 C10.37847656 1.72974609 10.37847656 1.72974609 12 2 C12.85050934 2.17271423 13.70101868 2.34542847 14.57730103 2.52337646 C19.05881024 3.14744325 23.45467523 3.15567561 27.97412109 3.16113281 C28.96366791 3.16609772 29.95321472 3.17106262 30.9727478 3.17617798 C34.23965154 3.19075447 37.50650661 3.19759642 40.7734375 3.203125 C42.45630796 3.20736607 42.45630796 3.20736607 44.17317581 3.21169281 C50.11789433 3.22667245 56.06258869 3.23590784 62.00732422 3.24023438 C68.11065557 3.24569696 74.21376134 3.26968173 80.31702232 3.29820633 C85.04090997 3.31695743 89.76474483 3.32204505 94.48866653 3.32357025 C96.73623504 3.32657254 98.98380316 3.3345177 101.23133469 3.34775543 C112.7249813 3.41058382 123.6203363 3.20442229 134.85903931 0.64471436 C137.68733155 0.0641784 140.12708377 -0.12804955 143 0 C142.67 1.32 142.34 2.64 142 4 C127.88494706 6.34314317 113.87205823 6.30997178 99.59765625 6.30078125 C97.0637556 6.30467598 94.5298556 6.30901223 91.99595642 6.31376648 C86.71530533 6.32118494 81.4347036 6.32110828 76.15405273 6.31567383 C70.07240162 6.30961122 63.99098051 6.32202339 57.90936857 6.3432439 C52.01683702 6.36303774 46.12437634 6.3660285 40.23180962 6.36250877 C37.74122004 6.36302057 35.25062665 6.3682316 32.76005745 6.37832069 C29.28134579 6.39069681 25.80316642 6.38388821 22.32446289 6.37231445 C20.7977018 6.38378006 20.7977018 6.38378006 19.24009705 6.39547729 C12.22635632 6.34406362 6.29469133 5.14734567 0 2 C0 1.34 0 0.68 0 0 Z " fill="#975AD1" transform="translate(562,1343)"/>
<path d="M0 0 C1.72651039 -0.01029488 1.72651039 -0.01029488 3.48789978 -0.02079773 C7.26704485 -0.03899652 11.04577196 -0.03523737 14.82495117 -0.02954102 C16.80048317 -0.03295102 18.77601537 -0.03637014 20.75154513 -0.04089409 C26.95615366 -0.05489292 33.16062437 -0.05341802 39.36523438 -0.04199219 C45.73190486 -0.03052581 52.09815334 -0.04457194 58.46476823 -0.07138866 C63.96154806 -0.09366092 69.45819655 -0.10015701 74.95501822 -0.09431225 C78.22448711 -0.09096754 81.49362928 -0.09493805 84.76307106 -0.11056328 C110.87663386 -0.21777881 110.87663386 -0.21777881 121.05541992 4.40405273 C121.05541992 5.06405273 121.05541992 5.72405273 121.05541992 6.40405273 C113.84309676 5.5718616 113.84309676 5.5718616 110.76498413 4.91609192 C100.06506781 2.71447473 89.21479775 3.09526647 78.34448242 3.10327148 C76.12747112 3.09937477 73.91046056 3.09503813 71.69345093 3.09028625 C67.05545633 3.08285087 62.41753786 3.08309401 57.77954102 3.08837891 C51.89890719 3.09414344 46.01859143 3.0773024 40.13801003 3.05403423 C35.55799604 3.03913736 30.97805563 3.03844705 26.3980217 3.04154396 C24.23356883 3.04103784 22.06911103 3.03593701 19.90468216 3.02573204 C5.37627476 2.96567332 -8.60352357 4.04349464 -22.94458008 6.40405273 C-21.94458008 3.40405273 -21.94458008 3.40405273 -20.07935047 2.46903896 C-13.29388586 0.45551442 -7.05504685 -0.02980104 0 0 Z " fill="#9F66D5" transform="translate(583.944580078125,330.595947265625)"/>
<path d="M0 0 C2.49506609 2.49506609 2.25095818 3.24817652 2.25396729 6.69091797 C2.25960693 7.68050003 2.26524658 8.67008209 2.27105713 9.68965149 C2.26700867 10.77948837 2.26296021 11.86932526 2.25878906 12.9921875 C2.2622937 14.13709152 2.26579834 15.28199554 2.26940918 16.46159363 C2.27824757 20.26612322 2.27236675 24.07046834 2.265625 27.875 C2.26697179 30.51619503 2.26891243 33.15738981 2.27142334 35.79858398 C2.2750666 41.34702561 2.27025876 46.89541409 2.26074219 52.44384766 C2.24989977 58.83869728 2.2533509 65.23341896 2.264395 71.62826538 C2.27350903 77.12736599 2.27473185 82.62642833 2.26951766 88.12553406 C2.26641495 91.40555247 2.26673685 94.68549846 2.27259064 97.96551514 C2.27769784 101.63464847 2.26988465 105.30354075 2.25878906 108.97265625 C2.26283752 110.04629929 2.26688599 111.11994232 2.27105713 112.22612 C2.23493059 118.70970463 1.53019302 124.69686323 0 131 C-0.66 131 -1.32 131 -2 131 C-1.34 87.77 -0.68 44.54 0 0 Z " fill="#8F4ACF" transform="translate(1182,861)"/>
<path d="M0 0 C0.33 0 0.66 0 1 0 C1.33 36.63 1.66 73.26 2 111 C2.33 111 2.66 111 3 111 C3 132.12 3 153.24 3 175 C1.68 175 0.36 175 -1 175 C-0.67 117.25 -0.34 59.5 0 0 Z " fill="#A46CD6" transform="translate(770,1089)"/>
<path d="M0 0 C0.82862045 0.00359528 1.65724091 0.00719055 2.51097107 0.01089478 C3.81329178 0.01067574 3.81329178 0.01067574 5.141922 0.01045227 C8.02594967 0.01115171 10.9099136 0.01894554 13.79393005 0.02676392 C15.78790247 0.02862799 17.78187535 0.03005194 19.77584839 0.03105164 C25.03498082 0.03487769 30.29408583 0.04470871 35.5532074 0.05575562 C40.91534555 0.06596786 46.27748811 0.07054885 51.63963318 0.07559204 C62.16894213 0.0863309 72.69823069 0.10340837 83.2275238 0.12442017 C83.2275238 0.78442017 83.2275238 1.44442017 83.2275238 2.12442017 C40.6575238 2.61942017 40.6575238 2.61942017 -2.7724762 3.12442017 C-3.4324762 12.03442017 -4.0924762 20.94442017 -4.7724762 30.12442017 C-5.1024762 30.12442017 -5.4324762 30.12442017 -5.7724762 30.12442017 C-6.60468627 26.49641398 -6.90097693 23.14050052 -6.9052887 19.42129517 C-6.90657776 18.35910767 -6.90786682 17.29692017 -6.90919495 16.20254517 C-6.90532776 15.10426392 -6.90146057 14.00598267 -6.8974762 12.87442017 C-6.90327698 11.20379517 -6.90327698 11.20379517 -6.90919495 9.49942017 C-6.90790588 8.44238892 -6.90661682 7.38535767 -6.9052887 6.29629517 C-6.90416077 5.32788696 -6.90303284 4.35947876 -6.90187073 3.36172485 C-6.64247922 -1.12330108 -3.83329846 0.0070238 0 0 Z " fill="#FDEFFD" transform="translate(804.7724761962891,331.8755798339844)"/>
<path d="M0 0 C0.33 0 0.66 0 1 0 C1 1.65 1 3.3 1 5 C1.66 5 2.32 5 3 5 C1.9386672 13.10383062 -0.32952222 19.81533074 -3.9375 27.125 C-4.38029297 28.06859375 -4.82308594 29.0121875 -5.27929688 29.984375 C-7.75521268 35.10594152 -7.75521268 35.10594152 -9 37 C-10.485 37.495 -10.485 37.495 -12 38 C-12.59732819 40.76264289 -13 43.16032769 -13 46 C-13.763125 46.4125 -14.52625 46.825 -15.3125 47.25 C-18.87870635 49.57218088 -19.44751122 52.11877806 -21 56 C-24.22791555 58.1519437 -25.28400809 58.20086443 -29 58 C-27.43306074 54.15387636 -24.94435097 51.87587769 -22 49 C-18.38333087 44.94227366 -15.52074241 40.7993651 -13 36 C-12.53630005 35.14233032 -12.53630005 35.14233032 -12.06323242 34.26733398 C-9.22595045 28.83505642 -7.25394713 23.2614047 -5.375 17.4375 C-5.0759375 16.53064453 -4.776875 15.62378906 -4.46875 14.68945312 C-2.87255977 9.81966036 -1.36843612 4.93856402 0 0 Z " fill="#914ED1" transform="translate(769,1264)"/>
<path d="M0 0 C0.33 -0.66 0.66 -1.32 1 -2 C2.32 -2 3.64 -2 5 -2 C5.061875 -1.21625 5.12375 -0.4325 5.1875 0.375 C5.72649889 3.18738911 5.72649889 3.18738911 8.25 4.25 C14.10460455 5.93061305 14.10460455 5.93061305 20 5 C20 5.99 20 6.98 20 8 C19.34 8.33 18.68 8.66 18 9 C18 9.66 18 10.32 18 11 C11.99664199 9.31395052 6.22350134 7.35793746 0.4609375 4.9765625 C-2.67684606 3.73141029 -5.86518791 2.70584039 -9.08984375 1.7109375 C-11 1 -11 1 -14 -1 C-16.64711758 -1.32873988 -16.64711758 -1.32873988 -19.66479492 -1.31884766 C-21.40626045 -1.34865219 -21.40626045 -1.34865219 -23.1829071 -1.37905884 C-24.43610245 -1.39061005 -25.68929779 -1.40216125 -26.98046875 -1.4140625 C-28.26359451 -1.43342865 -29.54672028 -1.4527948 -30.86872864 -1.4727478 C-34.2766095 -1.52407292 -37.68452986 -1.56369632 -41.09259033 -1.60089111 C-44.57159193 -1.64092857 -48.05042918 -1.69202204 -51.52929688 -1.7421875 C-58.35274449 -1.83895107 -65.17629758 -1.92335439 -72 -2 C-72 -2.33 -72 -2.66 -72 -3 C-70.38774536 -3.03758423 -70.38774536 -3.03758423 -68.74291992 -3.07592773 C-64.75646978 -3.17007495 -60.77019091 -3.27027785 -56.78393555 -3.37231445 C-55.05839035 -3.41563562 -53.33280307 -3.45731273 -51.60717773 -3.49731445 C-49.12731236 -3.55508526 -46.64765828 -3.61876003 -44.16796875 -3.68359375 C-43.39599655 -3.70030624 -42.62402435 -3.71701874 -41.82865906 -3.73423767 C-26.7971575 -4.15033496 -14.8104979 -3.94091219 0 0 Z " fill="#9451D4" transform="translate(1117,774)"/>
<path d="M0 0 C2.29945574 3.44918361 2.66983064 5.83997541 3.3671875 9.9140625 C3.48673294 10.59680237 3.60627838 11.27954224 3.72944641 11.98297119 C3.9846601 13.44158913 4.23697919 14.90071597 4.48666382 16.36029053 C5.1337418 20.13393742 5.80596865 23.90304631 6.48046875 27.671875 C6.67734032 28.77322281 6.67734032 28.77322281 6.87818909 29.89682007 C8.83095336 40.72218456 11.37211229 51.37251034 14.58203125 61.8984375 C15 64 15 64 14 67 C13.67 65.68 13.34 64.36 13 63 C12.34 63 11.68 63 11 63 C11 60.69 11 58.38 11 56 C10.34 56 9.68 56 9 56 C8.505 54.515 8.505 54.515 8 53 C7.34 52.67 6.68 52.34 6 52 C4.69861304 46.45705554 3.82525254 40.64175652 4 34.9375 C4.2226829 32.09534594 4.2226829 32.09534594 3.0703125 30.1796875 C-1.2665463 21.34769039 -0.23933196 9.61316712 0 0 Z " fill="#944FDA" transform="translate(801,381)"/>
<path d="M0 0 C8.26144348 -0.28033049 16.03700518 0.59653522 24.1875 1.875 C40.0793199 4.23582056 55.96161836 5.22234318 72 6 C72 6.33 72 6.66 72 7 C62.76 7 53.52 7 44 7 C44 7.66 44 8.32 44 9 C40.24847269 8.55364518 36.49915301 8.09084458 32.75 7.625 C31.68652344 7.49867188 30.62304688 7.37234375 29.52734375 7.2421875 C28.50253906 7.11328125 27.47773437 6.984375 26.421875 6.8515625 C25.00793457 6.67874756 25.00793457 6.67874756 23.56542969 6.50244141 C21.03389853 6.00663905 19.2697033 5.18156183 17 4 C13.7704409 3.49560031 10.56208821 3.12140675 7.3125 2.7890625 C2.2034389 2.2034389 2.2034389 2.2034389 0 0 Z " fill="#904AD1" transform="translate(1109,709)"/>
<path d="M0 0 C3.39987018 2.79615492 5.03926838 6.62994102 6.9375 10.5 C7.29376465 11.21542969 7.6500293 11.93085938 8.01708984 12.66796875 C9.99605895 16.71119954 11.700985 20.72194648 13.125 25 C14.61648782 29.44782975 16.71918586 32.53178272 19.671875 36.140625 C21.68326643 38.956573 22.29927016 41.63649676 23 45 C22.34 45 21.68 45 21 45 C20.74605469 44.44570313 20.49210938 43.89140625 20.23046875 43.3203125 C19.71419922 42.23363281 19.71419922 42.23363281 19.1875 41.125 C18.85105469 40.40570312 18.51460937 39.68640625 18.16796875 38.9453125 C17.00532903 36.69457194 17.00532903 36.69457194 14 35 C12.41669743 31.7724986 11.14167719 28.87030273 10.5625 25.3125 C10.18901254 22.85692864 10.18901254 22.85692864 8.1328125 21.25390625 C5.57011616 18.54570883 4.6010704 16.11267635 3.3125 12.625 C2.68794922 10.97371094 2.68794922 10.97371094 2.05078125 9.2890625 C1.05871261 6.18377702 0.44327161 3.22467918 0 0 Z " fill="#9352D5" transform="translate(828,482)"/>
<path d="M0 0 C0.66 0 1.32 0 2 0 C3.26237731 2.52475462 3.09856404 4.31200466 3.0625 7.125 C3.05347656 8.03507813 3.04445313 8.94515625 3.03515625 9.8828125 C3.02355469 10.58148437 3.01195312 11.28015625 3 12 C1.68 12.33 0.36 12.66 -1 13 C-1.061875 13.66 -1.12375 14.32 -1.1875 15 C-2.31206369 19.15223518 -4.42487692 22.56650256 -7 26 C-7.66 26.33 -8.32 26.66 -9 27 C-6.79264272 17.66118073 -3.64812815 8.87032174 0 0 Z " fill="#964ADA" transform="translate(1178,995)"/>
<path d="M0 0 C5.63429893 0.49423675 9.82456658 1.55875782 15 4 C16.6642135 4.67276716 18.32986582 5.34206835 20 6 C20 6.99 20 7.98 20 9 C22.31 9.33 24.62 9.66 27 10 C27.061875 10.61875 27.12375 11.2375 27.1875 11.875 C27.455625 12.57625 27.72375 13.2775 28 14 C29.66072849 14.68132451 31.327767 15.34742127 33 16 C34.16015625 18.0625 34.16015625 18.0625 35 20 C28.8020628 16.66070322 22.63424913 13.26732966 16.5 9.8125 C15.90106934 9.47992188 15.30213867 9.14734375 14.68505859 8.8046875 C11.71491421 7.12146485 9.38838396 5.40952011 7 3 C4.69011685 2.25613932 2.35684056 1.57809297 0 1 C0 0.67 0 0.34 0 0 Z " fill="#9859D4" transform="translate(1113,336)"/>
<path d="M0 0 C-0.33 1.32 -0.66 2.64 -1 4 C-0.01 4 0.98 4 2 4 C2 4.66 2 5.32 2 6 C3.65 6.33 5.3 6.66 7 7 C7 8.65 7 10.3 7 12 C7.763125 12.268125 8.52625 12.53625 9.3125 12.8125 C11.92443202 13.9666095 13.32864222 14.71287883 15 17 C15 18.32 15 19.64 15 21 C14.34 21 13.68 21 13 21 C11.63823078 19.35648543 10.31037934 17.68477344 9 16 C5.58918696 12.30495254 1.91000248 9.38052166 -2.12890625 6.42578125 C-4.28075198 4.78606582 -6.1658769 2.98696669 -8 1 C-5.29120665 -0.35439668 -2.99066732 -0.06501451 0 0 Z " fill="#9647E9" transform="translate(1145,786)"/>
<path d="M0 0 C1.34209166 2.68418333 0.63233676 4.11935477 0 7 C0 7.99 0 8.98 0 10 C-1.1446875 10.61875 -1.1446875 10.61875 -2.3125 11.25 C-5.87870635 13.57218088 -6.44751122 16.11877806 -8 20 C-11.22791555 22.1519437 -12.28400809 22.20086443 -16 22 C-14.43306074 18.15387636 -11.94435097 15.87587769 -9 13 C-5.3333684 8.88621821 -2.60243256 4.81931956 0 0 Z " fill="#954CDE" transform="translate(756,1300)"/>
<path d="M0 0 C4.32126244 2.30309042 7.51540299 5.31390747 10.875 8.8125 C14.22125373 12.24225544 17.54391362 15.57693304 21.25 18.625 C22.1575 19.40875 23.065 20.1925 24 21 C24 21.66 24 22.32 24 23 C23.443125 22.71125 22.88625 22.4225 22.3125 22.125 C19.99191422 20.93379271 19.99191422 20.93379271 17.375 20.125 C14.4932294 18.75995077 14.34866375 17.78161898 13 15 C11.9171875 14.4121875 11.9171875 14.4121875 10.8125 13.8125 C5.90755368 10.65153459 1.84955249 5.54865748 0 0 Z " fill="#8E45D6" transform="translate(900,594)"/>
<path d="M0 0 C0 0.99 0 1.98 0 3 C-4.55426184 5.66590937 -7.73946963 6.31563182 -13 6 C-13 6.66 -13 7.32 -13 8 C-17.62369023 9.80679587 -21.42528653 10.21839082 -26.375 10.125 C-27.62023438 10.10695313 -28.86546875 10.08890625 -30.1484375 10.0703125 C-31.55996094 10.03550781 -31.55996094 10.03550781 -33 10 C-33 9.67 -33 9.34 -33 9 C-27.06 8.505 -27.06 8.505 -21 8 C-21 7.34 -21 6.68 -21 6 C-14.03859556 3.81394921 -7.10437904 1.6716186 0 0 Z " fill="#9454D5" transform="translate(1126,1061)"/>
<path d="M0 0 C5.72992618 0.50342802 9.93964482 2.83132463 14.875 5.5625 C15.65875 5.98724609 16.4425 6.41199219 17.25 6.84960938 C19.17100387 7.89210538 21.0873249 8.94232445 23 10 C23 10.33 23 10.66 23 11 C17.06556211 11.31233884 13.24073059 10.88774951 8 8 C7.67 7.01 7.34 6.02 7 5 C6.01 4.67 5.02 4.34 4 4 C3.01 3.67 2.02 3.34 1 3 C0.67 2.01 0.34 1.02 0 0 Z " fill="#8F46D5" transform="translate(538,1332)"/>
<path d="M0 0 C0.99 0.33 1.98 0.66 3 1 C1.54754513 5.26365786 -0.60964917 8.33792336 -3.375 11.875 C-6.63280152 16.12430633 -9.5219891 20.2594574 -12 25 C-12.66 25 -13.32 25 -14 25 C-14.1875 22.6875 -14.1875 22.6875 -14 20 C-12.625 18.5 -12.625 18.5 -11 17 C-10.67 16.13375 -10.34 15.2675 -10 14.375 C-9.67 13.59125 -9.34 12.8075 -9 12 C-8.01 11.67 -7.02 11.34 -6 11 C-4.57216994 8.71398271 -4.57216994 8.71398271 -3.375 6 C-1.05882353 1.05882353 -1.05882353 1.05882353 0 0 Z " fill="#8F47DE" transform="translate(519,361)"/>
<path d="M0 0 C1.66666667 1.66666667 3.33333333 3.33333333 5 5 C6.0828125 5.99 6.0828125 5.99 7.1875 7 C9 9 9 9 9.9375 11.4375 C11.31288696 14.75460972 13.41455134 16.54067079 16 19 C17.02813611 20.31175986 18.04084432 21.6369893 19 23 C18.67 23.66 18.34 24.32 18 25 C6.31123919 13.62247839 6.31123919 13.62247839 4 9 C3.01 8.67 2.02 8.34 1 8 C-0.35439668 5.29120665 -0.06501451 2.99066732 0 0 Z " fill="#914AD3" transform="translate(866,551)"/>
<path d="M0 0 C0.33 0.66 0.66 1.32 1 2 C0.0625 4.625 0.0625 4.625 -1 7 C-1.99 7 -2.98 7 -4 7 C-4.268125 7.598125 -4.53625 8.19625 -4.8125 8.8125 C-6.00572423 11.01054464 -7.24678871 12.24678871 -9 14 C-9.4125 14.7425 -9.825 15.485 -10.25 16.25 C-12.28772415 19.45213794 -14.71203421 21.77366903 -17.4765625 24.3515625 C-19.23941295 26.03216269 -19.23941295 26.03216269 -20 29 C-22.31 29.33 -24.62 29.66 -27 30 C-24.0986526 27.00798549 -21.12799452 24.24609352 -17.9375 21.5625 C-14.59456106 18.66320342 -12.32295866 15.79416581 -10 12 C-8.97531558 10.52968459 -7.9327176 9.07173392 -6.875 7.625 C-6.12863281 6.59246094 -6.12863281 6.59246094 -5.3671875 5.5390625 C-4.91601562 5.03117187 -4.46484375 4.52328125 -4 4 C-3.34 4 -2.68 4 -2 4 C-1.34 2.68 -0.68 1.36 0 0 Z " fill="#9C4DE4" transform="translate(1168,1022)"/>
<path d="M0 0 C6.56671779 1.73288386 12.08847838 4.18871351 17 9 C17.33 9.99 17.66 10.98 18 12 C13.75707468 10.39369175 9.72974893 8.4231838 5.6875 6.375 C4.71973633 5.88773437 4.71973633 5.88773437 3.73242188 5.390625 C2.15402459 4.59558044 0.57688306 3.79804366 -1 3 C-0.67 2.01 -0.34 1.02 0 0 Z " fill="#9348D5" transform="translate(709,336)"/>
<path d="M0 0 C0.66 0.33 1.32 0.66 2 1 C2.11237377 10.72657452 1.92972557 20.30429046 1 30 C0.67 30 0.34 30 0 30 C-0.83221007 26.37199381 -1.12850073 23.01608036 -1.1328125 19.296875 C-1.13410156 18.2346875 -1.13539063 17.1725 -1.13671875 16.078125 C-1.13285156 14.97984375 -1.12898437 13.8815625 -1.125 12.75 C-1.13080078 11.079375 -1.13080078 11.079375 -1.13671875 9.375 C-1.13542969 8.31796875 -1.13414062 7.2609375 -1.1328125 6.171875 C-1.13168457 5.2034668 -1.13055664 4.23505859 -1.12939453 3.23730469 C-1 1 -1 1 0 0 Z " fill="#E5C9FA" transform="translate(799,332)"/>
<path d="M0 0 C2 1.375 2 1.375 4 3 C4 3.66 4 4.32 4 5 C4.99 5.33 5.98 5.66 7 6 C7.73046875 8.06640625 7.73046875 8.06640625 8.1875 10.5625 C8.34605469 11.38878906 8.50460937 12.21507812 8.66796875 13.06640625 C8.77753906 13.70449219 8.88710938 14.34257812 9 15 C9.66 15 10.32 15 11 15 C11.99 18.3 12.98 21.6 14 25 C13.34 25.33 12.68 25.66 12 26 C10.37242007 22.60539735 8.74839434 19.20910606 7.125 15.8125 C6.43470703 14.37293945 6.43470703 14.37293945 5.73046875 12.90429688 C5.06337891 11.50727539 5.06337891 11.50727539 4.3828125 10.08203125 C3.97434082 9.22843018 3.56586914 8.3748291 3.14501953 7.49536133 C2.01165594 5.025402 0.98721998 2.53148578 0 0 Z " fill="#8F4BD1" transform="translate(754,374)"/>
<path d="M0 0 C0.66 0 1.32 0 2 0 C1.01 2.97 0.02 5.94 -1 9 C-1.66 9 -2.32 9 -3 9 C-3.12117188 10.07121094 -3.24234375 11.14242188 -3.3671875 12.24609375 C-3.53597601 13.64328752 -3.70527313 15.04041991 -3.875 16.4375 C-3.95363281 17.14455078 -4.03226562 17.85160156 -4.11328125 18.58007812 C-4.33927676 20.39673432 -4.66300727 22.20062522 -5 24 C-5.66 24.33 -6.32 24.66 -7 25 C-7.42345694 17.76986488 -6.96038712 10.71264735 -4 4 C-3.01 3.67 -2.02 3.34 -1 3 C-0.67 2.01 -0.34 1.02 0 0 Z " fill="#924CD6" transform="translate(503,388)"/>
<path d="M0 0 C-3.13541677 3.54371429 -6.26597638 5.31436478 -10.5625 7.25 C-11.69816406 7.77078125 -12.83382812 8.2915625 -14.00390625 8.828125 C-17 10 -17 10 -20 10 C-19.5 8.1875 -19.5 8.1875 -18 6 C-14.85503785 4.40752976 -11.55448697 3 -8 3 C-8 2.34 -8 1.68 -8 1 C-5.29120665 -0.35439668 -2.99066732 -0.06501451 0 0 Z " fill="#9652D7" transform="translate(560,337)"/>
<path d="M0 0 C4.42051588 2.41119048 8.4942989 5.37306428 12 9 C12 9.66 12 10.32 12 11 C4.25 12.125 4.25 12.125 2 11 C2.226875 10.071875 2.45375 9.14375 2.6875 8.1875 C2.790625 7.135625 2.89375 6.08375 3 5 C1.64555699 3.22809091 1.64555699 3.22809091 0 2 C0 1.34 0 0.68 0 0 Z " fill="#9041DE" transform="translate(928,620)"/>
<path d="M0 0 C18.02614379 4.02614379 18.02614379 4.02614379 23 9 C20.36 8.67 17.72 8.34 15 8 C15 7.34 15 6.68 15 6 C14.41992188 5.96261719 13.83984375 5.92523437 13.2421875 5.88671875 C8.18321136 5.46096333 4.45720842 4.62861009 0 2 C0 1.34 0 0.68 0 0 Z " fill="#9352D5" transform="translate(1041,689)"/>
<path d="M0 0 C0.66 0.33 1.32 0.66 2 1 C0.48832294 5.23269578 -2.30552799 6.66268097 -6 9 C-6.515625 9.598125 -7.03125 10.19625 -7.5625 10.8125 C-8.036875 11.204375 -8.51125 11.59625 -9 12 C-11.6875 11.6875 -11.6875 11.6875 -14 11 C-13.2575 10.4225 -12.515 9.845 -11.75 9.25 C-9.04166225 7.12192547 -9.04166225 7.12192547 -7 4.9375 C-4.81441874 2.82021816 -2.72022549 1.36011274 0 0 Z " fill="#924DD3" transform="translate(735,1325)"/>
<path d="M0 0 C6.41481258 -0.42765417 11.88595404 1.14256832 18 3 C18 3.33 18 3.66 18 4 C8.595 4.495 8.595 4.495 -1 5 C-0.67 3.35 -0.34 1.7 0 0 Z " fill="#923FDC" transform="translate(1058,697)"/>
<path d="M0 0 C3.70605319 3.49835844 6.52199492 7.00850064 9.3125 11.3125 C10.00988281 12.38113281 10.70726562 13.44976563 11.42578125 14.55078125 C11.94527344 15.35902344 12.46476563 16.16726563 13 17 C10 17 10 17 7.875 15.1875 C6 13 6 13 5 10 C4.34 9.401875 3.68 8.80375 3 8.1875 C0.53883472 5.49560047 0.32480368 3.57284046 0 0 Z " fill="#9454D1" transform="translate(507,1297)"/>
<path d="M0 0 C1.051875 0.309375 2.10375 0.61875 3.1875 0.9375 C9.57665445 2.89466755 9.57665445 2.89466755 16 2 C16 2.99 16 3.98 16 5 C15.01 5.495 15.01 5.495 14 6 C14 6.66 14 7.32 14 8 C12.41531323 7.54636829 10.83230076 7.08688548 9.25 6.625 C8.36828125 6.36976563 7.4865625 6.11453125 6.578125 5.8515625 C4.23919428 5.0790066 2.16557438 4.16374324 0 3 C0 2.01 0 1.02 0 0 Z " fill="#8C47CE" transform="translate(1121,777)"/>
<path d="M0 0 C3.2870477 1.38550828 4.90210594 2.84068329 6.9375 5.75 C8.82755335 8.40668213 10.75384913 10.89228695 12.9375 13.3125 C13.618125 14.199375 14.29875 15.08625 15 16 C14.67 16.99 14.34 17.98 14 19 C7.72070711 13.57957695 3.91797318 7.25241844 0 0 Z " fill="#F2DAFB" transform="translate(513,1304)"/>
<path d="M0 0 C2.125 0.375 2.125 0.375 4 1 C1.70479977 5.72541224 -1.49666217 8.44991713 -6 11 C-6.66 11 -7.32 11 -8 11 C-7.52653165 6.73878485 -5.03860562 4.81626862 -2 2 C-1.34 1.34 -0.68 0.68 0 0 Z " fill="#F1DBF9" transform="translate(739,1317)"/>
<path d="M0 0 C7.09474089 -0.53321643 12.90560055 0.07279001 19 4 C19.99 5.485 19.99 5.485 21 7 C13.96354423 5.11380178 6.96640656 3.13072305 0 1 C0 0.67 0 0.34 0 0 Z " fill="#EDD3FA" transform="translate(1062,696)"/>
<path d="M0 0 C4.05275012 1.31440544 5.49701524 2.66268698 8 6 C8.825 6.2475 9.65 6.495 10.5 6.75 C13.512707 8.2563535 13.67698012 9.05748183 14.8125 12.125 C15.22664606 13.41091207 15.62846444 14.70113583 16 16 C12.45651614 14.55004052 10.79873666 12.76038872 8.5625 9.6875 C5.91180686 6.14562555 3.22063934 3.02544908 0 0 Z " fill="#9957DB" transform="translate(738,357)"/>
<path d="M0 0 C4.8274799 1.41292095 8.7162359 3.42974154 13 6 C13 6.66 13 7.32 13 8 C11.51965236 7.52449439 10.04074979 7.04448784 8.5625 6.5625 C7.73878906 6.29566406 6.91507813 6.02882813 6.06640625 5.75390625 C4 5 4 5 3 4 C0.99279077 4.28674418 -1.0085944 4.61866701 -3 5 C-1.125 1.125 -1.125 1.125 0 0 Z " fill="#9048D7" transform="translate(982,660)"/>
<path d="M0 0 C0.7578125 1.72265625 0.7578125 1.72265625 1 4 C-0.6953125 6.18359375 -0.6953125 6.18359375 -3.125 8.4375 C-3.95128906 9.21867187 -4.77757812 9.99984375 -5.62890625 10.8046875 C-6.41136719 11.52914063 -7.19382812 12.25359375 -8 13 C-9.02666319 14.01496999 -10.04903702 15.03434915 -11.0625 16.0625 C-11.701875 16.701875 -12.34125 17.34125 -13 18 C-11.56045392 13.70483261 -9.40353948 10.76752344 -6.5 7.3125 C-5.7059375 6.35988281 -4.911875 5.40726562 -4.09375 4.42578125 C-2 2 -2 2 0 0 Z " fill="#F3DDFB" transform="translate(525,360)"/>
<path d="M0 0 C3.94949704 0.62816498 7.19892028 1.8645529 10.8125 3.5625 C12.27623047 4.24505859 12.27623047 4.24505859 13.76953125 4.94140625 C14.87361328 5.46541016 14.87361328 5.46541016 16 6 C16 6.33 16 6.66 16 7 C5.03290369 6.38243535 5.03290369 6.38243535 1 3 C0.67 2.01 0.34 1.02 0 0 Z " fill="#904BD7" transform="translate(1015,678)"/>
<path d="M0 0 C-1.74192316 3.48384633 -5.48488667 4.63133666 -9 6 C-11.70021571 6.56197383 -14.23868084 6.80276292 -17 7 C-12.02368697 2.62687642 -6.82232737 -0.62021158 0 0 Z " fill="#ECD1FA" transform="translate(571,335)"/>
<path d="M0 0 C4.18659858 3.82774727 7.37820862 7.94607874 10 13 C10 13.66 10 14.32 10 15 C8 15 8 15 6.5625 13.75 C2.58615745 9.29649635 1.03187097 5.88166452 0 0 Z " fill="#9453D0" transform="translate(856,535)"/>
<path d="M0 0 C-0.5859375 1.921875 -0.5859375 1.921875 -2 4 C-5.0390625 4.828125 -5.0390625 4.828125 -8.625 5.25 C-10.40777344 5.47429687 -10.40777344 5.47429687 -12.2265625 5.703125 C-13.59941406 5.85007812 -13.59941406 5.85007812 -15 6 C-14.67 5.01 -14.34 4.02 -14 3 C-11.85546875 2.05078125 -11.85546875 2.05078125 -9.1875 1.3125 C-8.31480469 1.06113281 -7.44210937 0.80976563 -6.54296875 0.55078125 C-4 0 -4 0 0 0 Z " fill="#8E45D5" transform="translate(576,331)"/>
<path d="M0 0 C3.74764406 1.24921469 4.67889091 2.83212516 7.0625 5.9375 C9.88153077 9.60051788 9.88153077 9.60051788 13 13 C12.01 13.495 12.01 13.495 11 14 C7.35169287 12.74936328 5.84925354 10.751145 3.8125 7.5625 C3.30332031 6.78003906 2.79414062 5.99757813 2.26953125 5.19140625 C1 3 1 3 0 0 Z " fill="#EBD0F9" transform="translate(741,361)"/>
<path d="M0 0 C6.06732052 1.03767051 11.4373852 2.33961901 17 5 C16.67 5.66 16.34 6.32 16 7 C14.26982492 6.54548816 12.54090123 6.08621143 10.8125 5.625 C9.84957031 5.36976563 8.88664062 5.11453125 7.89453125 4.8515625 C5.17789793 4.05233704 2.60862825 3.0968638 0 2 C0 1.34 0 0.68 0 0 Z " fill="#EDD1FA" transform="translate(1107,335)"/>
<path d="M0 0 C4.95 1.98 9.9 3.96 15 6 C15 6.66 15 7.32 15 8 C15.66 8 16.32 8 17 8 C17 8.66 17 9.32 17 10 C10.83643195 8.3341708 5.51740344 5.12194714 0 2 C0 1.34 0 0.68 0 0 Z " fill="#9351D2" transform="translate(996,668)"/>
<path d="M0 0 C4.3573226 1.47130373 7.71934134 3.83080615 11.3125 6.625 C11.86228516 7.04523438 12.41207031 7.46546875 12.97851562 7.8984375 C14.32292168 8.92720039 15.66201413 9.9629009 17 11 C15.20214844 11.64208984 15.20214844 11.64208984 13 12 C10.55863564 10.28396853 8.45092752 8.60825337 6.25 6.625 C5.64800781 6.10421875 5.04601562 5.5834375 4.42578125 5.046875 C2.92157653 3.7302695 1.45704572 2.36861231 0 1 C0 0.67 0 0.34 0 0 Z " fill="#F5DFFC" transform="translate(720,345)"/>
<path d="M0 0 C1.65 0 3.3 0 5 0 C5.061875 0.61875 5.12375 1.2375 5.1875 1.875 C5.455625 2.57625 5.72375 3.2775 6 4 C7.66072849 4.68132451 9.327767 5.34742127 11 6 C12.16015625 8.0625 12.16015625 8.0625 13 10 C11.20112771 9.09755571 9.41109185 8.17748214 7.625 7.25 C6.62726563 6.73953125 5.62953125 6.2290625 4.6015625 5.703125 C1.93420875 3.95692945 1.06347095 2.94696769 0 0 Z " fill="#9150D1" transform="translate(1135,346)"/>
<path d="M0 0 C0 0.99 0 1.98 0 3 C-1.71484375 4.38671875 -1.71484375 4.38671875 -3.9375 5.6875 C-4.66839844 6.12449219 -5.39929688 6.56148437 -6.15234375 7.01171875 C-8 8 -8 8 -9 8 C-9 6.35 -9 4.7 -9 3 C-6.03 2.01 -3.06 1.02 0 0 Z " fill="#F3DEFA" transform="translate(729,1328)"/>
<path d="M0 0 C6.44807122 0.60830861 6.44807122 0.60830861 8.9375 2.375 C10 4 10 4 10 7 C8.5410574 6.52269162 7.08286504 6.04308958 5.625 5.5625 C4.81289063 5.29566406 4.00078125 5.02882813 3.1640625 4.75390625 C1 4 1 4 -1 3 C-0.67 2.01 -0.34 1.02 0 0 Z " fill="#F5E5FC" transform="translate(1012,673)"/>
<path d="M0 0 C1.8125 0.5 1.8125 0.5 4 2 C5.37162003 4.56072611 6.39748699 7.15636384 7 10 C6.67 10.99 6.34 11.98 6 13 C4.98868775 11.59138651 3.99133233 10.17274547 3 8.75 C2.1646875 7.56664062 2.1646875 7.56664062 1.3125 6.359375 C0 4 0 4 0 0 Z " fill="#F2DAFB" transform="translate(840,504)"/>
<path d="M0 0 C0.97983761 3.04838368 1.21704816 5.00418914 0 8 C-1.28817344 9.37701298 -2.62804426 10.70644173 -4 12 C-5.35156675 13.65191491 -6.68962066 15.31522656 -8 17 C-7.21302675 13.58978257 -6.12880057 10.31114834 -5 7 C-4.34 7 -3.68 7 -3 7 C-2.690625 6.21625 -2.38125 5.4325 -2.0625 4.625 C-1 2 -1 2 0 0 Z " fill="#EBD5F9" transform="translate(510,379)"/>
<path d="M0 0 C4.45768233 -0.43702768 6.34650802 -0.51445113 9.9375 2.3125 C12 5 12 5 12 8 C8.15641703 7.45091672 6.60968697 5.77279241 4 3 C2.68441297 1.97676564 1.35622245 0.96873032 0 0 Z " fill="#EED6F9" transform="translate(529,1324)"/>
<path d="M0 0 C0.99 0 1.98 0 3 0 C1.4722133 3.43752007 -0.50181056 6.18953688 -3 9 C-3.66 9 -4.32 9 -5 9 C-5.33 9.99 -5.66 10.98 -6 12 C-6.33 11.01 -6.66 10.02 -7 9 C-5.671875 6.73828125 -5.671875 6.73828125 -3.75 4.3125 C-3.12609375 3.50425781 -2.5021875 2.69601562 -1.859375 1.86328125 C-1.24578125 1.24839844 -0.6321875 0.63351562 0 0 Z " fill="#F4DEFC" transform="translate(750,1305)"/>
<path d="M0 0 C1 3 1 3 0.109375 5.375 C-0.33921875 6.24125 -0.7878125 7.1075 -1.25 8 C-1.68828125 8.86625 -2.1265625 9.7325 -2.578125 10.625 C-3.87579238 12.79253233 -5.12777789 14.32601317 -7 16 C-7.1875 13.125 -7.1875 13.125 -7 10 C-6.01 9.34 -5.02 8.68 -4 8 C-2.94647157 5.69034152 -1.94280904 3.3570226 -1 1 C-0.67 0.67 -0.34 0.34 0 0 Z " fill="#F2DBFB" transform="translate(1172,1010)"/>
<path d="M0 0 C3.56170128 1.66212727 6.32114278 3.12807199 9 6 C7.37419034 5.88601335 5.74932843 5.75844341 4.125 5.625 C3.22007813 5.55539062 2.31515625 5.48578125 1.3828125 5.4140625 C-1 5 -1 5 -3 3 C-2.01 2.01 -1.02 1.02 0 0 Z " fill="#F9ECFC" transform="translate(1058,690)"/>
<path d="M0 0 C-0.22265625 1.88671875 -0.22265625 1.88671875 -1 4 C-2.99609375 5.08203125 -2.99609375 5.08203125 -5.4375 5.8125 C-6.24058594 6.06644531 -7.04367187 6.32039063 -7.87109375 6.58203125 C-10 7 -10 7 -12 6 C-9.1490916 2.47828963 -4.56486714 0 0 0 Z " fill="#F2DCFA" transform="translate(549,344)"/>
<path d="M0 0 C0.91007812 0.00902344 1.82015625 0.01804687 2.7578125 0.02734375 C3.45648437 0.03894531 4.15515625 0.05054688 4.875 0.0625 C4.875 0.7225 4.875 1.3825 4.875 2.0625 C-0.075 2.7225 -5.025 3.3825 -10.125 4.0625 C-6.35068243 0.28818243 -5.13465105 -0.06582886 0 0 Z " fill="#EED7FA" transform="translate(1100.125,1066.9375)"/>
<path d="M0 0 C0.33 0.66 0.66 1.32 1 2 C0.0625 4.625 0.0625 4.625 -1 7 C-1.99 7 -2.98 7 -4 7 C-4.226875 7.556875 -4.45375 8.11375 -4.6875 8.6875 C-6.35896766 11.63246684 -8.55276352 13.68156544 -11 16 C-11 12.43013844 -10.3954571 11.97905092 -8.0625 9.4375 C-5.75540038 6.91000271 -5.75540038 6.91000271 -4 4 C-3.34 4 -2.68 4 -2 4 C-1.34 2.68 -0.68 1.36 0 0 Z " fill="#9A5DD3" transform="translate(1168,1022)"/>
<path d="M0 0 C3.91841827 1.30613942 6.32640809 2.83129848 9 6 C9 6.66 9 7.32 9 8 C5.08788267 6.84414715 2.1254959 5.64465038 -1 3 C-0.67 2.01 -0.34 1.02 0 0 Z " fill="#F5DFF8" transform="translate(1141,791)"/>
<path d="M0 0 C4.82034262 0.41317222 6.90992611 2.38019915 10 6 C10 6.66 10 7.32 10 8 C9.1646875 7.566875 9.1646875 7.566875 8.3125 7.125 C5.98395537 5.92661791 5.98395537 5.92661791 3.3125 5.125 C1 4 1 4 0.1875 1.875 C0.125625 1.25625 0.06375 0.6375 0 0 Z " fill="#944FD7" transform="translate(914,609)"/>
<path d="M0 0 C0.33 0.66 0.66 1.32 1 2 C1.66 2 2.32 2 3 2 C1.72278474 6.99275057 -0.17330957 9.57611908 -4 13 C-2.93204565 8.49933525 -1.85961414 4.2505466 0 0 Z " fill="#9354CF" transform="translate(1173,1009)"/>
<path d="M0 0 C1.7290774 -0.02725341 3.45828176 -0.04650987 5.1875 -0.0625 C6.15042969 -0.07410156 7.11335938 -0.08570313 8.10546875 -0.09765625 C10.85576513 -0.00486622 13.32479591 0.37888315 16 1 C14 3 14 3 10.25 3.25 C6.54017494 3.16876295 3.46191974 2.38476789 0 1 C0 0.67 0 0.34 0 0 Z " fill="#9A5AD6" transform="translate(1109,709)"/>
<path d="M0 0 C1.32 0.33 2.64 0.66 4 1 C4 2.32 4 3.64 4 5 C4.66 5 5.32 5 6 5 C7.35439668 7.70879335 7.06501451 10.00933268 7 13 C3.30250259 8.92000285 1.7410336 5.13604912 0 0 Z " fill="#F2DEFB" transform="translate(825,474)"/>
<path d="M0 0 C2.93783498 0.62953607 5.55005903 1.22590481 8 3 C8.75 6.125 8.75 6.125 9 9 C8.34 9 7.68 9 7 9 C5.65080468 7.34614767 4.31866272 5.678298 3 4 C2.01 3.34 1.02 2.68 0 2 C0 1.34 0 0.68 0 0 Z " fill="#8E47D8" transform="translate(1151,798)"/>
<path d="M0 0 C0.66 0 1.32 0 2 0 C2.08159574 4.16138263 1.98248524 7.9472484 1 12 C0.01 12.33 -0.98 12.66 -2 13 C-1.85851011 11.3954444 -1.71164314 9.79136233 -1.5625 8.1875 C-1.48128906 7.29417969 -1.40007812 6.40085937 -1.31640625 5.48046875 C-1 3 -1 3 0 0 Z " fill="#EBD0F8" transform="translate(500,397)"/>
<path d="M0 0 C-2.12121657 2.33333823 -4.01594365 3.9148886 -7 5 C-9.25 4.625 -9.25 4.625 -11 4 C-7.65667474 -0.27945633 -5.29105716 -0.4070044 0 0 Z " fill="#F0D8F9" transform="translate(1131,1058)"/>
<path d="M0 0 C3.3 1.98 6.6 3.96 10 6 C9.67 6.99 9.34 7.98 9 9 C5.37 6.69 1.74 4.38 -2 2 C-1.34 1.34 -0.68 0.68 0 0 Z " fill="#F4DFFD" transform="translate(967,647)"/>
<path d="M0 0 C0 1.98 0 3.96 0 6 C-5.75 4.375 -5.75 4.375 -8 1 C-5.29120665 -0.35439668 -2.99066732 -0.06501451 0 0 Z " fill="#8F43DC" transform="translate(1145,786)"/>
<path d="M0 0 C1.93681161 -0.08107583 3.8745934 -0.13922475 5.8125 -0.1875 C6.89144531 -0.22230469 7.97039062 -0.25710938 9.08203125 -0.29296875 C12 0 12 0 13.88671875 1.51171875 C14.25410156 2.00285156 14.62148437 2.49398437 15 3 C9.5610835 3.21755666 5.12919186 3.10428384 0 1 C0 0.67 0 0.34 0 0 Z " fill="#E3C7F4" transform="translate(1091,772)"/>
<path d="M0 0 C5.01113235 1.4317521 6.94469549 3.98445693 10 8 C5.61999924 7.49942848 3.15830185 6.06806466 0 3 C0 2.01 0 1.02 0 0 Z " fill="#F5DFFC" transform="translate(1142,353)"/>
<path d="M0 0 C3.9492568 0.55105909 7.34920174 1.38935371 11 3 C11 3.99 11 4.98 11 6 C9.53775201 5.57576756 8.08026588 5.13509755 6.625 4.6875 C5.81289063 4.44386719 5.00078125 4.20023438 4.1640625 3.94921875 C2 3 2 3 0 0 Z " fill="#F0DCFB" transform="translate(995,666)"/>
<path d="M0 0 C0 0.66 0 1.32 0 2 C-1.28650706 2.69710731 -2.57940665 3.38242876 -3.875 4.0625 C-4.95394531 4.63677734 -4.95394531 4.63677734 -6.0546875 5.22265625 C-6.69664062 5.47917969 -7.33859375 5.73570312 -8 6 C-8.66 5.67 -9.32 5.34 -10 5 C-7.22392109 0.83588163 -5.08838935 -1.69612978 0 0 Z " fill="#EDD5F9" transform="translate(536,354)"/>
<path d="M0 0 C2.4375 0.375 2.4375 0.375 5 1 C5.33 1.66 5.66 2.32 6 3 C7.64142963 4.0409066 9.30712215 5.04504326 11 6 C10.67 6.99 10.34 7.98 10 9 C8.51726301 7.87970983 7.03891114 6.75361382 5.5625 5.625 C4.32693359 4.68527344 4.32693359 4.68527344 3.06640625 3.7265625 C1 2 1 2 0 0 Z " fill="#9A5BD4" transform="translate(727,348)"/>
<path d="M0 0 C1.32 0.66 2.64 1.32 4 2 C2.68 4.97 1.36 7.94 0 11 C-0.33 11 -0.66 11 -1 11 C-1.02688151 9.35425434 -1.04634123 7.70838587 -1.0625 6.0625 C-1.07410156 5.14597656 -1.08570313 4.22945313 -1.09765625 3.28515625 C-1 1 -1 1 0 0 Z " fill="#8D38DC" transform="translate(796,329)"/>
<path d="M0 0 C1.11375 0.1546875 1.11375 0.1546875 2.25 0.3125 C1.92 1.6325 1.59 2.9525 1.25 4.3125 C-1.39 4.6425 -4.03 4.9725 -6.75 5.3125 C-3.42692308 0.38942308 -3.42692308 0.38942308 0 0 Z " fill="#9042D5" transform="translate(702.75,1342.6875)"/>
<path d="M0 0 C0.99 0 1.98 0 3 0 C2.31267043 2.74931827 1.64439778 4.53418821 -0.69140625 6.22265625 C-2.43116325 7.20324656 -4.2137611 8.10688055 -6 9 C-4.4705003 5.55862568 -2.54630448 2.7777867 0 0 Z " fill="#8F40D9" transform="translate(1164,1029)"/>
<path d="M0 0 C4.875 4.625 4.875 4.625 6 8 C5.01 8 4.02 8 3 8 C3 8.66 3 9.32 3 10 C2.34 10 1.68 10 1 10 C0.67 6.7 0.34 3.4 0 0 Z " fill="#F1DEFB" transform="translate(1162,811)"/>
<path d="M0 0 C0.99 0.33 1.98 0.66 3 1 C2.21718695 2.33855056 1.42348123 3.67073644 0.625 5 C0.18414062 5.7425 -0.25671875 6.485 -0.7109375 7.25 C-1.34902344 8.11625 -1.34902344 8.11625 -2 9 C-2.66 9 -3.32 9 -4 9 C-4.25 6.75 -4.25 6.75 -4 4 C-2 1.6875 -2 1.6875 0 0 Z " fill="#9251D2" transform="translate(509,377)"/>
<path d="M0 0 C5.29158974 1.40071493 7.77478044 4.85487245 11 9 C10.67 9.66 10.34 10.32 10 11 C8.33035479 9.35718838 6.6643536 7.71067239 5 6.0625 C4.071875 5.14597656 3.14375 4.22945313 2.1875 3.28515625 C0 1 0 1 0 0 Z " fill="#8E4DD4" transform="translate(1148,356)"/>
<path d="M0 0 C2.12890625 0.13671875 2.12890625 0.13671875 4.5625 0.6875 C5.36816406 0.85636719 6.17382812 1.02523437 7.00390625 1.19921875 C7.66261719 1.46347656 8.32132813 1.72773437 9 2 C9.33 2.99 9.66 3.98 10 5 C5.6822542 4.49202991 1.96697886 3.80317221 -2 2 C-1.34 1.34 -0.68 0.68 0 0 Z " fill="#EDD1FA" transform="translate(1039,686)"/>
<path d="M0 0 C-0.25 1.875 -0.25 1.875 -1 4 C-3.58152302 5.72101535 -4.84918025 6 -8 6 C-6.98565881 3.46414701 -6.34981128 2.21863205 -4 0.75 C-2 0 -2 0 0 0 Z " fill="#8E46D0" transform="translate(548,341)"/>
<path d="M0 0 C5.41342681 1.14514798 7.9342948 2.34012809 11 7 C7.41584854 7 6.58796261 6.21108216 3.8125 4.0625 C3.09707031 3.51722656 2.38164063 2.97195313 1.64453125 2.41015625 C1.10183594 1.94480469 0.55914063 1.47945312 0 1 C0 0.67 0 0.34 0 0 Z " fill="#EDD2FB" transform="translate(952,639)"/>
<path d="M0 0 C0.99 0 1.98 0 3 0 C1.61198929 3.35435922 0.11371 5.11290303 -3 7 C-3.99 7 -4.98 7 -6 7 C-6 6.34 -6 5.68 -6 5 C-5.38125 4.9175 -4.7625 4.835 -4.125 4.75 C-1.81562433 4.18741541 -1.81562433 4.18741541 -0.75 1.9375 C-0.5025 1.298125 -0.255 0.65875 0 0 Z " fill="#924FD2" transform="translate(535,348)"/>
<path d="M0 0 C6.875 3.625 6.875 3.625 8 7 C4.84859577 6.65930765 3.39218439 6.41923159 1.1875 4.0625 C0 2 0 2 0 0 Z " fill="#924CD5" transform="translate(530,1325)"/>
<path d="M0 0 C2.89932357 2.39509338 3.50168276 4.31245243 4 8 C1.69 7.01 -0.62 6.02 -3 5 C-3 3 -3 3 -1.5 1.375 C-1.005 0.92125 -0.51 0.4675 0 0 Z " fill="#964ADD" transform="translate(503,1289)"/>
<path d="M0 0 C1.65 0 3.3 0 5 0 C4.625 2.4375 4.625 2.4375 4 5 C3.01 5.495 3.01 5.495 2 6 C1.34 5.67 0.68 5.34 0 5 C0 3.35 0 1.7 0 0 Z " fill="#8C39D9" transform="translate(770,1264)"/>
<path d="M0 0 C4.875 1.75 4.875 1.75 6 4 C5.0625 6.125 5.0625 6.125 4 8 C0 3.375 0 3.375 0 0 Z " fill="#F1DDFB" transform="translate(850,523)"/>
<path d="M0 0 C4.0369867 1.79421631 6.64480474 3.20551875 9 7 C5.13066838 6.42676569 2.84777943 4.61046448 0 2 C0 1.34 0 0.68 0 0 Z " fill="#904CD0" transform="translate(941,631)"/>
<path d="M0 0 C0.33 0.99 0.66 1.98 1 3 C-0.75 5.6875 -0.75 5.6875 -3 8 C-3.99 8 -4.98 8 -6 8 C-5.6875 6.0625 -5.6875 6.0625 -5 4 C-4.01 3.67 -3.02 3.34 -2 3 C-1.34 2.01 -0.68 1.02 0 0 Z " fill="#8B47CD" transform="translate(515,369)"/>
<path d="M0 0 C2.31 0.33 4.62 0.66 7 1 C6.67 2.65 6.34 4.3 6 6 C3.96166576 4.7260411 1.96147874 3.38938077 0 2 C0 1.34 0 0.68 0 0 Z " fill="#F0DCFB" transform="translate(901,593)"/>
<path d="M0 0 C2.5 2.3125 2.5 2.3125 5 5 C5 5.99 5 6.98 5 8 C1.125 6.125 1.125 6.125 0 5 C-0.04063832 3.33382885 -0.042721 1.66611905 0 0 Z " fill="#9759D2" transform="translate(851,527)"/>
<path d="M0 0 C2.3125 -0.3125 2.3125 -0.3125 5 0 C6.8125 2.5 6.8125 2.5 8 5 C5 5 5 5 2.3125 2.5 C1.549375 1.675 0.78625 0.85 0 0 Z " fill="#F4DFFB" transform="translate(944,632)"/>
<path d="M0 0 C2.97 0.495 2.97 0.495 6 1 C6.33 2.98 6.66 4.96 7 7 C5.83040013 6.02433888 4.66438823 5.044375 3.5 4.0625 C2.8503125 3.51722656 2.200625 2.97195313 1.53125 2.41015625 C1.0259375 1.94480469 0.520625 1.47945312 0 1 C0 0.67 0 0.34 0 0 Z " fill="#F1DBFC" transform="translate(911,603)"/>
<path d="M0 0 C1.65 1.32 3.3 2.64 5 4 C4.67 4.66 4.34 5.32 4 6 C2.35 5.67 0.7 5.34 -1 5 C-0.67 3.35 -0.34 1.7 0 0 Z " fill="#8F4BD4" transform="translate(893,585)"/>
<path d="M0 0 C2 2 2 2 2.125 4.625 C2.08375 5.40875 2.0425 6.1925 2 7 C1.01 6.67 0.02 6.34 -1 6 C-1.8125 4.0625 -1.8125 4.0625 -2 2 C-1.34 1.34 -0.68 0.68 0 0 Z " fill="#F8F9F1" transform="translate(527,1313)"/>
<path d="M0 0 C5.75 1.625 5.75 1.625 8 5 C5.125 4.75 5.125 4.75 2 4 C0.625 1.9375 0.625 1.9375 0 0 Z " fill="#EFD4FA" transform="translate(1129,783)"/>
<path d="M0 0 C2.475 0.99 2.475 0.99 5 2 C5 3.65 5 5.3 5 7 C2.5 5.1875 2.5 5.1875 0 3 C0 2.01 0 1.02 0 0 Z " fill="#EBCFF7" transform="translate(875,561)"/>
<path d="M0 0 C0.8353125 0.37125 0.8353125 0.37125 1.6875 0.75 C1.3575 1.41 1.0275 2.07 0.6875 2.75 C-1.96110427 3.34355614 -4.60447322 3.49209269 -7.3125 3.75 C-2.88173077 -0.31153846 -2.88173077 -0.31153846 0 0 Z " fill="#F3DDFA" transform="translate(561.3125,338.25)"/>
<path d="M0 0 C0.99 0 1.98 0 3 0 C1.63016497 3.16115776 1.0109362 3.9927092 -2 6 C-1.125 1.125 -1.125 1.125 0 0 Z " fill="#9049DF" transform="translate(525,356)"/>
</svg>
